<svg width="149" height="148" viewBox="0 0 149 148" fill="none" xmlns="http://www.w3.org/2000/svg">
<path d="M74.5 26.8867V126.972C74.4838 130.09 73.2377 133.077 71.0323 135.282C68.8269 137.488 65.8405 138.734 62.7217 138.75C59.6078 138.718 56.6306 137.467 54.4286 135.265C52.2267 133.063 50.9754 130.086 50.9433 126.972C49.9591 127.069 48.9676 127.069 47.9833 126.972C42.5258 126.955 37.2964 124.78 33.4373 120.921C29.5782 117.062 27.4029 111.833 27.3867 106.375C27.3912 104.922 27.5567 103.475 27.88 102.058C23.0657 100.461 18.8121 97.5131 15.6261 93.5661C12.4401 89.6192 10.4559 84.8395 9.91001 79.7965C9.36412 74.7536 10.2795 69.66 12.5472 65.1227C14.8148 60.5854 18.339 56.7956 22.7 54.205C21.9269 52.0482 21.5306 49.7745 21.5283 47.4833C21.5362 42.5393 23.3223 37.763 26.5603 34.0268C29.7983 30.2906 34.2723 27.8439 39.165 27.1333C39.4313 22.6281 41.4086 18.3947 44.6927 15.2991C47.9768 12.2034 52.3194 10.4792 56.8325 10.4792C61.3456 10.4792 65.6883 12.2034 68.9723 15.2991C72.2564 18.3947 74.2337 22.6281 74.5 27.1333V26.8867Z" stroke="#054461" stroke-width="5" stroke-miterlimit="10"/>
<path d="M42.125 68.1417C36.8493 67.8531 31.8847 65.5541 28.2521 61.7173C24.6194 57.8806 22.595 52.7978 22.595 47.5142C22.595 42.2305 24.6194 37.1478 28.2521 33.311C31.8847 29.4743 36.8493 27.1752 42.125 26.8867" stroke="#054461" stroke-width="5" stroke-miterlimit="10"/>
<path d="M50.9434 85.7783C54.0369 85.7783 57.1001 86.3876 59.9581 87.5715C62.8161 88.7553 65.413 90.4905 67.6004 92.6779C69.7879 94.8654 71.523 97.4622 72.7069 100.32C73.8907 103.178 74.5 106.241 74.5 109.335" stroke="#054461" stroke-width="5" stroke-miterlimit="10"/>
<path d="M56.8633 44.585C59.1846 44.585 61.4831 44.1268 63.6269 43.2366C65.7707 42.3464 67.7177 41.0418 69.3562 39.3975C70.9947 37.7533 72.2925 35.8018 73.1752 33.6549C74.0579 31.508 74.5081 29.2079 74.5 26.8867" stroke="#054461" stroke-width="5" stroke-miterlimit="10"/>
<path d="M74.5 26.8867V126.972C74.5162 130.09 75.7623 133.077 77.9677 135.282C80.1731 137.488 83.1595 138.734 86.2783 138.75C89.3922 138.718 92.3694 137.467 94.5714 135.265C96.7733 133.063 98.0246 130.086 98.0567 126.972C99.041 127.069 100.032 127.069 101.017 126.972C106.474 126.955 111.704 124.78 115.563 120.921C119.422 117.062 121.597 111.833 121.613 106.375C121.609 104.922 121.443 103.475 121.12 102.058C125.934 100.461 130.188 97.5131 133.374 93.5661C136.56 89.6192 138.544 84.8395 139.09 79.7965C139.636 74.7536 138.72 69.66 136.453 65.1227C134.185 60.5854 130.661 56.7956 126.3 54.205C127.073 52.0482 127.469 49.7745 127.472 47.4833C127.464 42.5393 125.678 37.763 122.44 34.0268C119.202 30.2906 114.728 27.8439 109.835 27.1333C109.569 22.6281 107.591 18.3947 104.307 15.2991C101.023 12.2034 96.6806 10.4792 92.1675 10.4792C87.6544 10.4792 83.3118 12.2034 80.0277 15.2991C76.7436 18.3947 74.7663 22.6281 74.5 27.1333V26.8867Z" stroke="#054461" stroke-width="5" stroke-miterlimit="10"/>
<path d="M106.875 68.1417C112.151 67.8531 117.115 65.5541 120.748 61.7173C124.381 57.8806 126.405 52.7978 126.405 47.5142C126.405 42.2305 124.381 37.1478 120.748 33.311C117.115 29.4743 112.151 27.1752 106.875 26.8867" stroke="#054461" stroke-width="5" stroke-miterlimit="10"/>
<path d="M98.0567 85.7783C91.809 85.7783 85.8173 88.2602 81.3996 92.6779C76.9819 97.0956 74.5 103.087 74.5 109.335" stroke="#054461" stroke-width="5" stroke-miterlimit="10"/>
<path d="M92.1366 44.585C89.8154 44.585 87.5169 44.1268 85.3731 43.2366C83.2293 42.3464 81.2823 41.0418 79.6438 39.3975C78.0053 37.7533 76.7074 35.8018 75.8248 33.6549C74.9421 31.508 74.4919 29.2079 74.5 26.8867" stroke="#054461" stroke-width="5" stroke-miterlimit="10"/>
</svg>
