<svg width="783" height="432" viewBox="0 0 783 432" fill="none" xmlns="http://www.w3.org/2000/svg">
<path fill-rule="evenodd" clip-rule="evenodd" d="M666.508 231.15C671.017 228.161 680.41 241.791 676.329 246.56C672.999 251.467 662.988 234.487 666.508 231.15ZM650.532 225.731C653.193 227.127 654.919 228.333 652.791 231.536C639.198 234.346 644.559 216.969 650.532 225.731ZM637.268 197.481C642.893 196.665 650.163 202.557 645.353 207.038C642.916 206.701 640.71 205.869 637.769 206.966C628.449 208.933 626.273 197.398 637.268 197.481ZM631.841 221.716C635.512 227.009 635.155 235.066 634.588 242.228C627.7 240.69 628.976 226.085 631.841 221.716ZM607.613 202.308C602.791 201.855 598.638 195.127 603.33 191.012C608.433 188.383 617.966 194.065 617.959 199.962C617.626 205.834 612.63 203.658 607.613 202.308ZM589.315 155.034C592.799 156.187 599.202 169.717 595.522 172.686C590.609 175.192 584.772 157.996 589.315 155.034ZM564.824 169.801C568.315 159.728 579.826 177.538 577.075 183.179C572.532 187.108 564.394 174.804 564.824 169.801ZM568.36 135.863C573.861 143.182 564.662 147.726 558.768 150.064C545.144 153.347 563.253 131.225 568.36 135.863ZM540.446 131.847C537.108 124.739 545.771 111.813 545.6 124.372C543.828 127.19 544.805 143.417 540.446 131.847ZM527.591 115.168C527.314 108.644 533.531 105.596 532.819 115.39C531.647 120.66 528.363 122.799 527.591 115.168ZM528.826 87.2107C529.625 89.8192 529.703 92.3023 526.717 93.2347C502.275 104.55 523.884 76.907 528.826 87.2107ZM517.681 65.2923C522.351 67.953 525.442 79.067 516.991 73.8179C511.14 72.2423 506.266 71.4168 499.705 70.0543C487.001 60.6075 511.96 58.8784 517.681 65.2923ZM489.661 180.506C484.117 169.86 496.978 172.154 502.88 174.462C512.054 181.559 494.493 183.527 489.661 180.506ZM489.898 85.1682C486.386 84.5082 482.993 82.1304 478.433 82.6368C471.162 66.4056 495.818 74.1539 489.898 85.1682ZM481.337 95.0458C487.903 90.4518 484.14 111.59 481.51 114.565C472.023 125.163 479.123 98.5682 481.337 95.0458ZM538.759 222.646C536.744 233.81 529.653 242.858 532.477 224.745C532.864 218.095 540.988 211.339 538.759 222.646ZM454.801 66.191C457.404 56.9428 461.632 49.75 465.147 40.3988C469.108 44.1214 470.29 50.7274 467.173 56.0754C465.212 59.2635 455.706 79.157 454.801 66.191ZM456.049 96.4823C454.993 100.865 459.232 105.591 457.452 108.968C445.398 110.313 450.781 75.1129 456.049 96.4823ZM429.546 26.1217C434.856 26.1266 450.367 24.3155 446.477 32.698C440.599 33.5887 418.888 36.5146 429.546 26.1217ZM432.197 45.8079C435.778 47.455 441.135 53.5095 437.836 57.3696C432.316 58.8543 426.98 49.2202 432.197 45.8079ZM432.895 116.357C432.359 119.113 433.603 131.462 428.22 129.738C423.961 120.23 428.044 99.0377 437.11 116.733C435.789 116.615 434.516 116.501 432.895 116.357ZM429.772 89.0395C430.713 91.2685 427.139 96.4951 424.99 93.0555C423.148 90.529 427.362 82.4166 429.772 89.0395ZM410.273 52.1189C415.491 59.7112 424.453 63.5938 431.336 70.8758C438.198 83.9865 418.718 73.4867 415.125 68.7898C411.844 65.986 402.816 54.2877 410.273 52.1189ZM395.134 112.819C400.15 107.899 411.332 98.1494 406.039 112.454C403.644 116.68 392.968 122.778 395.134 112.819ZM404.815 91.3602C398.845 87.5893 395.275 93.7693 389.577 94.4445C383.52 84.2357 408.152 77.4778 404.815 91.3602ZM374.246 59.3945C378.654 62.0616 389.126 69.9715 385.131 75.0027C379.77 73.2737 369.629 64.5873 374.246 59.3945ZM345.165 158.968C345.578 155.357 351.2 154.019 349.326 159.957C351.003 162.163 354.694 164.912 353.741 169.161C350.185 175.693 342.033 164.172 345.165 158.968ZM343.236 130.198C352.319 134.14 344.855 139.012 338.109 139.248C333.858 134.418 336.964 128.844 343.236 130.198ZM344.259 36.9021C335.58 27.2817 363.653 29.768 360.834 38.4503C355.907 36.6473 350.025 38.673 344.259 36.9021ZM655.848 192.996C641.811 178.466 624.281 169.738 610.79 154.703C563.83 100.022 579.36 119.769 558.375 117.906C553.766 113.726 559.054 109.331 564.82 110.619C541.281 71.0036 515.827 56.6309 491.787 31.4689C488.989 27.2769 484.691 38.8635 480.132 31.4689C476.989 27.4786 485.069 25.551 482.119 22.4498C469.376 8.20724 474.363 13.8318 462.562 22.2343C459.084 17.7987 461.913 14.0432 465.986 10.5882C457.798 11.3302 460.007 5.65504 454.942 4.35522C436.437 7.45807 419.982 16.0327 401.529 16.8245C394.92 19.1468 394.061 33.5444 391.332 39.7043C385.503 42.5885 387.089 22.8437 389.577 19.7481C388.252 19.7376 383.514 15.3566 377.72 16.257C313.232 13.8486 302.248 6.56258 326.852 45.8079C329.459 53.6703 339.855 48.0112 343.901 54.0666C345.098 57.2972 342.165 57.5641 338.994 57.2699C339.427 57.8205 339.855 58.3744 340.288 58.9258C332.319 66.1106 347.575 73.1008 350.955 80.1715C354.752 85.4222 355.96 96.3352 363.801 91.0282C365.015 95.3159 370.891 91.373 374.827 92.1431C379.109 95.5723 373.244 99.7957 369.275 100.362C372.684 103.648 367.685 105.923 368.495 110.33C373.588 117.965 381.693 149.463 365.299 137.538C359.787 131.258 366.656 128.561 373.088 130.09C373.56 127.089 372.276 122.819 370.929 119.353C366.831 122.676 360.217 123.512 363.801 114.565C356.262 116.355 347.391 118.179 338.77 118.224C343.954 129.926 331.446 125.262 328.109 118.374C325.419 117.697 319.419 117.225 315.609 117.044C318.247 126.886 325.095 139.455 328.109 150.489C331.599 147.133 338.522 152.577 335.316 155.766C335.316 155.766 330.154 158.169 328.109 158.63C331.671 168.342 331.749 226.61 335.316 211.186C336.167 204.341 344.427 197.291 340.453 193.247C331.657 186.024 343.448 181.384 346.398 189.596C353.287 181.489 363.975 176.056 368.495 165.316C372.908 167.855 375.143 164.037 377.545 158.63C379.402 162.531 386.403 162.378 388.447 157.729C390.113 153.976 387.194 152.162 392.264 149.702C397.289 147.281 395.047 141.557 398.409 136.349C401.262 134.236 402.903 141.49 401.365 144.301C403.449 145.145 406.282 140.381 408.417 142.772C420.709 146.54 434.892 141.958 447.521 140.308C452.437 139.248 463.952 159.888 468.13 165.316C480.099 148.712 482.838 161.168 473.054 169.801C481.2 179.351 491.63 192.957 499.705 203.844C498.631 197.336 508.717 187.275 509.613 194.488C502.679 204.615 513.916 219.643 518.615 227.543C521.504 231.967 523.945 237.182 525.806 242.228C533.978 239.514 544.911 234.554 553.019 229.021C548.393 225.951 552.453 221.703 558.019 223.875C555.467 221.409 558.798 218.503 557.628 214.32C554.741 207.749 548.994 205.317 542.81 203.389C532.238 215.698 516.041 196.296 540.314 199.876C535.65 193.551 528.138 182.212 520.688 179.451C513.213 181.367 504.294 174.483 514.786 170.945C507.369 163.164 513.065 160.979 509.361 155.98C506.485 152.005 500.139 148.563 498.331 142.946C498.262 137.518 492.744 130.805 500.916 129.598C497.939 130.187 499.896 106.73 504.294 115.686C506.845 118.932 501.562 131.536 507.862 127.585C509.446 136.366 512.311 135.268 517.681 137.538C519.68 139.909 521.727 142.928 524.267 145.94C529.432 137.113 542.937 138.565 537.474 149.495C535.883 147.863 534.361 148.837 531.74 150.489C549.289 168.266 560.254 186.765 574.873 197.258C589.49 207.75 600.696 220.425 616.302 229.95C622.101 246.625 619.042 251.422 637.097 254.885C640.571 260.55 641.122 265.868 646.921 263.037C647.617 264.254 649.146 265.514 650.532 267.577C650.842 263.004 661.052 246.894 662.537 258.447C659.226 262.487 656.069 270.463 652.791 274.86C655.205 280.036 659.428 286.53 660.17 293.378C667.729 286.985 676.467 277.547 684.199 272.238C683.746 269.229 684.231 266.386 685.752 263.037C689.521 276.42 689.897 264.575 696.906 266.627C698.893 268.18 701.783 266.671 704.383 266.297C705.05 263.801 707.435 260.253 704.398 256.963C693.111 227.455 670.771 213.144 655.848 192.996Z" fill="#E6E032" fill-opacity="0.8"/>
<path fill-rule="evenodd" clip-rule="evenodd" d="M569.238 280.084C571.06 278.47 568.177 273.299 568.174 269.475C568.911 255.869 579.381 285.634 588.665 283.494C584.917 279.441 583.306 269.335 577.814 272.49C583.166 268.887 576.546 258.865 582.831 254.27C579.429 252.76 572.66 242.612 569.739 248.142C567.187 244.461 564.786 241.001 562.218 237.296C559.069 241.014 548.643 240.25 548.538 246.263C549.101 249.31 553.366 252.712 549.19 255.102C551.178 262.46 552.558 272.187 558.203 278.882C557.534 256.848 563.055 269.027 569.238 280.084ZM685.859 281.649C690.733 286.174 706.855 301.04 702.564 303.813C696.634 305.669 698.869 311.225 698.158 317.278C706.107 306.968 705.38 325.023 707.636 330.258C710.099 337.833 715.275 342.333 720.845 348.637C708.742 309.789 719.412 333.439 735.527 345.373C734.35 339.509 730.071 333.786 725.43 328.996C717.887 311.131 741.642 342.26 747.432 340.308C745.215 336.723 745.447 330.278 741.267 327.498C731.417 322.076 725.54 311.809 720.405 301.009C711.341 295.308 711.6 281.149 704.411 271.077C698.887 271.97 691.783 278.137 685.859 281.649ZM291.949 340.636C293.136 333.227 294.894 324.591 296.388 316.629C293.731 300.621 292.334 285.797 291.119 269.057C286.412 240.753 291.833 230.207 263.776 228.459C260.566 228.273 261.629 236.821 260.665 240.485C258.245 243.479 259.412 246.205 257.852 249.895C256.05 252.91 260.499 257.18 261.641 261.245C274.989 286.665 273.405 315.288 285.52 341.486C285.785 338.381 289.013 338.05 291.949 340.636ZM488.707 30.7213C483.222 24.842 476.905 17.7103 470.33 11.6348C450.606 7.69439 430.846 15.5833 410.649 20.7376C380.651 27.2109 339.92 24.8058 317.231 16.8494C316.891 33.2317 330.633 46.1101 339.705 59.5753C361.821 88.4478 389.218 121.67 380.153 157.68C437.019 113.886 473.738 148.255 514.765 123.166C516.87 125.874 515.46 128.307 514.665 132.351C522.48 142.291 532.517 152.488 542.777 161.317C591.375 209.824 650.005 243.094 660.889 289.637C675.256 278.901 689.973 262.862 703.778 266.245C679.883 217.413 629.947 187.877 593.903 148.014C583.866 136.696 575.325 126.521 566.078 113.922C541.095 71.0068 513.242 56.6485 488.707 30.7213ZM610.263 33.9616C596.936 32.075 594.464 32.0919 584.791 23.121C581.339 34.5404 567.195 20.8983 574.535 42.3369C567.544 49.0321 565.673 36.6167 568.198 30.9448C547.25 31.0903 564.328 51.6896 567.546 62.2353C562.59 68.7223 556.06 57.6807 554.915 52.3439C546.811 54.8423 538.208 56.1469 529.242 58.2948C595.184 117.291 550.687 106.464 587.624 87.8916C589.735 86.2509 587.805 82.337 591.48 80.03C592.933 79.1522 594.399 79.7872 595.191 82.1409C599.26 103.907 615.805 86.6022 601.642 77.0051C601.712 73.4505 608.186 75.4344 607.577 71.1202C607.485 54.6164 620.255 41.9293 631.228 30.4062C629.611 30.0783 628.317 29.8154 626.987 29.5445C627.751 30.2736 628.374 30.8692 629.146 31.6064C625.874 33.907 622.28 32.8692 619.465 34.382C618.673 40.6167 616.408 43.4124 612.111 42.992C612.724 40.0942 613.329 37.2413 613.95 34.3041C613.666 34.239 612.111 33.8989 610.263 33.9616ZM337.85 118.376C331.464 119.132 325.022 118.161 317.723 118.289C335.782 158.181 330.885 180.153 333.969 211.186C340.07 187.545 360.17 180.605 368.15 160.16C373.772 147.526 374.79 134.87 370.562 120.991C369.741 118.217 367.867 114.197 364.046 115.765C355.695 118.827 347.11 118.038 337.85 118.376ZM334.031 108.712C343.602 109.439 353.875 109.957 364.396 108.158C358.673 97.9863 353.041 88.4856 345.225 78.78C298.862 20.2971 327.39 28.3162 300.034 28.8435C315.838 52.5642 320.619 80.4488 319.421 108.712H334.031ZM509.029 210.322C536.105 242.044 515.573 245.594 546.144 232.667C549.413 228.85 561.082 228.604 556.652 222.585C544.863 203.293 529.703 188.078 514.019 171.023C492.006 142.038 501.749 142.149 485.047 145.338C475.658 147.186 467.337 145.066 457.286 147.141C473.412 168.26 492.261 188.567 509.029 210.322ZM548.85 48.2902C549.622 48.1294 550.395 47.967 551.015 47.8376C544.202 24.6579 564.846 24.9264 579.172 22.2239C580.456 19.0632 581.183 16.1926 585.989 16.0777C598.563 23.5269 595.268 25.7712 611.884 27.4617C616.059 28.1233 618.728 29.3339 623.713 29.2865C625.366 27.9955 626.781 26.1185 629.602 25.7881C647.579 24.1628 663.913 37.1754 669.362 54.286C673.577 64.613 669.359 75.5654 665.547 85.8048C671.377 102.368 720.185 101.992 701.617 128.368C726.851 142.033 751.64 159.062 770.963 181.748C780.447 193.648 793.215 220.862 769.394 222.193C766.108 222.036 760.54 223.784 760.477 228.89C761.357 237.474 768.013 242.064 771.154 250.567C803.004 316.564 732.615 277.433 707.286 259.404C708.208 262.152 709.698 265.805 710.618 269.019C709.773 270.556 709.194 270.46 711.549 272.858C719.943 282.474 721.222 293.691 729.806 303.549C734.198 314.038 764.322 327.019 750.875 336.4C755.984 350.277 749.283 349.606 739.666 342.317C746.485 358.571 735.323 353.025 726.827 345.599C739.637 390.611 701.076 346.647 700.062 329.812C688.19 340.579 687.272 324.093 689.088 315.008C688.744 312.2 692.398 309.411 689.017 307.621C693.065 302.656 689.923 294.122 685.316 288.797C680.54 277.108 667.286 298.055 658.177 295.871C650.135 285.688 642.889 271.427 634.595 258.968C629.139 278.718 612.786 286.668 601.012 265.592C594.413 248.294 596.349 230.015 583.419 215.22C567.596 192.734 547.26 175.641 527.491 156.244C505.498 133.826 518.333 131.441 499.698 141.858C519.873 169.807 552.156 190.128 565.56 223.413C566.104 227.597 566.028 230.884 569.562 234.309C573.132 241.829 579.333 244.572 585.679 249.438C591.211 254.385 593.857 263.703 583.172 262.483C586.692 272.019 595.873 279.223 599.157 289.243C603.412 304.357 578.906 286.821 575.563 282.609C576.698 293.886 572.044 293.957 565.963 284.281C567.393 303.077 552.536 281.073 550.703 274.653C546.833 265.998 548.072 257.317 542.832 249.009C540.472 244.822 529.44 251.803 525.287 251.529C520.174 250.739 507.726 243.865 519.358 241.652C500.897 208.157 469.804 182.767 452.602 147.895C428.637 141.95 399.784 157.913 379.455 172.897C326.624 217.839 344.318 232.671 330.1 221.151C316.713 200.3 326.304 174.433 320.688 150.809C319.113 142.793 316.043 131.226 311.42 125.128C309.515 125.293 308.244 125.844 307.158 123.307C306.226 118.66 304.181 119.305 299.834 121.274C291.951 124.257 286.175 126.708 277.383 127.323C235.813 126.962 195.737 122.577 153.847 118.263C190.382 143.664 205.908 169.29 230.563 190.688C257.322 216.257 263.649 208.358 261.721 222.092C269.059 225.732 285.543 220.165 289.893 232.228C301.868 264.439 299.033 299.686 304.658 333.877C297.355 332.719 304.173 356.03 292.503 348.77C285.953 369.061 270.582 323.515 270.121 318.386C265.987 298.238 263.486 278.224 255.974 258.484C253.802 260.65 252.679 268.11 247.285 265.413C231.853 258.837 217.203 250.296 202.178 241.394C163.899 221.642 129.456 196.451 99.6556 165.221C82.9018 148.01 59.9978 130.573 62.8891 103.297C66.0765 75.264 143.363 52.9283 158.716 46.1937C182.033 34.2317 295.001 1.33195 297.369 22.4168C302.833 23.2681 302.993 17.273 306.809 14.011C309.149 11.671 311.367 14.06 313.083 10.0963C337.074 13.04 361.914 13.4764 386.84 12.5126C413.311 12.6002 435.248 -3.66795 462.288 1.26926C486.09 12.3591 501.432 40.771 525.558 54.1309C532.88 51.3817 540.094 48.2733 548.85 48.2902Z" fill="#054461"/>
<path fill-rule="evenodd" clip-rule="evenodd" d="M82.3161 327.878C78.8364 350.5 74.0541 351.563 58.6969 365.075C43.5691 382.418 24.7036 397.005 12.2331 417.302C40.3024 391.284 80.6955 394.578 92.9384 376.61C98.7752 367.384 98.7872 357.114 99.6481 345.85C104.181 321.751 98.955 332.117 82.3161 327.878ZM78.096 326.788C75.4418 323.706 74.964 329.446 71.5629 327.033C69.2308 315.795 73.0213 303.379 73.2968 291.145C77.5234 250.136 85.0803 210.697 103.752 173.323C166.381 229.5 160.098 203.437 141.678 246.842C133.513 258.742 129.869 271.487 124.984 285.666C119.69 300.534 112.399 313.02 114.112 329.977C113.367 333.798 107.537 328.419 107.78 333.181C106.635 347.638 107.293 361.662 102.705 376.047C98.3182 386.835 89.8554 394.332 77.8052 396.724C52.7775 405.416 29.1606 412.055 8.99124 431.803C-18.335 435.632 24.6468 382.444 32.0439 378.519C57.8202 349.178 74.4966 344.712 78.096 326.788Z" fill="#054461"/>
<path fill-rule="evenodd" clip-rule="evenodd" d="M333.277 11.0649C331.136 10.8784 328.993 10.6935 326.852 10.507C328.995 10.6935 331.136 10.8784 333.277 11.0649Z" fill="#054461"/>
<path fill-rule="evenodd" clip-rule="evenodd" d="M269.833 127.317C271.175 127.335 272.517 127.352 273.849 127.37C272.503 127.352 271.167 127.335 269.833 127.317Z" fill="#054461"/>
<path fill-rule="evenodd" clip-rule="evenodd" d="M276.258 15.2031C274.661 16.1211 273.057 16.4089 271.44 15.2819C273.045 15.2546 274.651 15.2288 276.258 15.2031Z" fill="#054461"/>
<path fill-rule="evenodd" clip-rule="evenodd" d="M289.911 15.8349C288.304 15.6838 286.699 15.5343 285.092 15.3832C286.698 15.5343 288.304 15.6838 289.911 15.8349Z" fill="#054461"/>
<path fill-rule="evenodd" clip-rule="evenodd" d="M608.732 26.3203C607.125 26.145 605.519 25.9714 603.913 25.7978C605.521 25.9714 607.125 26.1467 608.732 26.3203Z" fill="#054461"/>
<path fill-rule="evenodd" clip-rule="evenodd" d="M548.501 47.7476C547.162 47.7572 545.824 47.7685 544.486 47.7781L548.501 47.7476Z" fill="#054461"/>
<path fill-rule="evenodd" clip-rule="evenodd" d="M265.015 16.7135C263.677 16.7264 262.337 16.7393 261 16.7521C262.334 15.7795 263.673 15.929 265.015 16.7135Z" fill="#054461"/>
<path fill-rule="evenodd" clip-rule="evenodd" d="M301.295 295.347C301.2 294.006 301.105 292.666 301.012 291.328C301.107 292.669 301.2 294.009 301.295 295.347Z" fill="#054461"/>
<path fill-rule="evenodd" clip-rule="evenodd" d="M279.471 126.565C280.277 126.548 281.082 126.53 281.88 126.514C281.07 126.532 280.271 126.549 279.471 126.565Z" fill="#054461"/>
<path fill-rule="evenodd" clip-rule="evenodd" d="M749.27 347.595C750.076 347.595 750.883 347.596 751.679 347.599C750.871 347.601 750.071 347.598 749.27 347.595Z" fill="#054461"/>
<path fill-rule="evenodd" clip-rule="evenodd" d="M230.483 22.584C229.412 22.7576 228.34 22.9297 227.271 23.1033C228.343 22.9297 229.413 22.756 230.483 22.584Z" fill="#054461"/>
<path fill-rule="evenodd" clip-rule="evenodd" d="M213.618 124.153C214.424 124.135 215.232 124.119 216.027 124.103C215.217 124.119 214.417 124.137 213.618 124.153Z" fill="#054461"/>
<path fill-rule="evenodd" clip-rule="evenodd" d="M449.998 0C448.851 0.00964614 447.704 0.0184861 446.558 0.0265246C447.706 0.0184861 448.851 0.00884229 449.998 0Z" fill="#054461"/>
<path fill-rule="evenodd" clip-rule="evenodd" d="M334.08 107.768C335.418 107.956 336.757 108.146 338.095 108.334C336.756 108.146 335.418 107.956 334.08 107.768Z" fill="#054461"/>
<path fill-rule="evenodd" clip-rule="evenodd" d="M612.747 33.3162C611.942 33.3001 611.134 33.284 610.338 33.2711C611.148 33.2888 611.948 33.3017 612.747 33.3162Z" fill="#054461"/>
<path fill-rule="evenodd" clip-rule="evenodd" d="M605.519 34.9045C603.503 38.9286 597.877 37.9463 602.49 43.8449C607.154 47.7508 600.921 49.9943 597.606 47.5474C591.274 41.1424 597.943 34.743 605.519 34.9045Z" fill="#054461"/>
</svg>
