<svg width="781" height="477" viewBox="0 0 781 477" fill="none" xmlns="http://www.w3.org/2000/svg">
<path fill-rule="evenodd" clip-rule="evenodd" d="M204.996 390.72C208.698 395.002 214.165 398.18 218.359 402.094C222.764 406.206 227.545 409.799 231.932 413.861C251.286 390.207 277.798 375.702 300.766 356.074C311.654 346.767 319.677 334.144 325.547 321.19C328.557 314.548 330.781 307.713 332.521 300.638C333.304 297.452 334.07 294.276 334.583 291.046C335.203 287.134 335.364 286.8 338.003 283.747C339.139 282.433 341.339 278.594 343.565 279.017C345.437 279.374 348.863 285.074 350.046 286.482C355.737 293.254 361.255 300.233 367.247 306.743C376.414 316.704 384.76 326.506 393.272 337.065C410.683 358.665 429.465 378.999 448.418 399.324C449.823 400.831 453.101 405.251 455.12 405.845C457.576 406.567 461.567 403.555 464.039 401.872C470.008 397.808 474.713 392.778 479.816 387.742C489.773 377.913 496.516 364.117 501.052 350.99C503.767 343.133 505.532 334.988 508.335 327.157C509.503 323.894 512.15 319.882 510.806 317.04C510.406 316.193 507.858 313.941 506.96 313.769C505.898 313.565 504.127 315.021 503.758 314.921C500.234 313.956 502.189 310.267 500.093 308.282C498.904 307.156 492.86 307.32 491.055 306.702C484.456 304.438 478.536 300.12 472.298 297.543C446.183 286.753 419.751 276.258 397.206 258.639C391.359 254.071 387.474 250.638 380.497 247.685C373.447 244.7 366.36 242.038 359.167 239.435C352.82 237.137 346.438 234.983 339.881 233.337C332.792 231.556 322.735 229.298 315.651 231.592C301.74 236.096 297.247 247.558 291.708 259.649C284.212 276.008 275.15 291.489 265.326 306.547C246.426 335.518 223.439 361.515 204.996 390.72Z" fill="#E6E032" fill-opacity="0.8"/>
<path fill-rule="evenodd" clip-rule="evenodd" d="M623.943 134.598C624.709 134.209 630.685 136.642 631.688 137.014C635.695 138.501 639.47 140.971 643.245 142.981C640.352 146.502 637.458 150.024 634.565 153.545C631.729 146.589 628.085 140.85 623.943 134.598ZM621.97 177.877C622.955 177.988 614.644 197.959 613.674 200.201C610.142 208.357 606.434 216.433 602.856 224.569C599.389 232.452 594.991 239.705 590.56 247.07C586.77 253.369 582.872 263.143 577.155 267.808C580.765 251.795 580.29 233.383 590.643 219.937C601.375 205.998 611.985 192.387 621.97 177.877ZM204.996 391.432C221.033 366.037 241.108 343.571 257.831 318.628C267.195 304.662 276.309 290.518 284.191 275.652C289.924 264.838 293.488 249.409 302.343 241.142C306.245 237.5 310.414 233.934 315.651 232.302C322.816 230.07 332.683 232.283 339.881 234.048C353.296 237.337 366.4 242.445 379.106 247.809C391.995 253.25 402.99 263.023 414.635 270.874C427.127 279.298 440.649 285.435 454.644 290.806C466.83 295.484 477.671 302.199 489.792 306.907C492.207 307.845 497.136 307.707 499.162 308.931C501.346 310.248 500.486 314.138 503.137 315.573C504.332 316.22 504.731 313.873 505.649 313.912C506.771 313.958 507.795 315.276 508.877 316.111C513.282 319.51 510.583 321.776 508.839 326.452C503.154 341.69 500.098 357.194 492.115 371.58C485.552 383.404 476.159 394 465.099 401.828C463.416 403.019 457.932 407.635 455.958 407.328C454.18 407.053 450.563 402.327 449.336 401.043C443.766 395.219 438.676 388.954 433.11 383.121C424.509 374.106 416.229 364.85 407.883 355.712C398.193 345.104 389.618 333.085 380.891 321.75C376.876 316.536 371.709 312.289 367.247 307.454C361.247 300.953 355.737 293.964 350.045 287.194C348.324 285.145 345.439 279.903 342.763 279.965C340.888 280.008 337.581 284.423 336.6 285.807C332.955 290.95 332.971 300.237 331.158 306.657C326.734 322.312 318.757 337.601 307.816 349.681C296.937 361.694 283 370.237 270.132 379.893C256.193 390.354 242.986 401.06 231.932 414.573C227.544 410.511 222.764 406.917 218.359 402.805C214.164 398.89 208.697 395.713 204.996 391.432ZM411.427 463.278C408.31 463.31 403.03 465.228 400.241 464.073C408.514 454.919 416.111 447.065 426.578 440.356C437.441 433.395 448.267 426.495 458.817 419.07C480.078 404.105 495.716 386.359 504.597 361.438C506.884 355.02 508.416 348.29 510.092 341.693C510.993 338.14 512.788 321.518 515.836 320.083C517.642 319.233 531.231 328.783 533.384 329.973C538.418 332.758 543.471 334.916 548.675 337.095C559.862 341.779 571.394 345.351 583.257 348.334C597.48 351.91 607.168 345.993 615.978 334.815C625.974 322.132 634.281 307.823 643.42 294.504C647.576 288.447 651.019 282.399 654.089 275.717C656.098 271.346 664.065 259.551 661.312 254.893C653.458 260.873 650.632 272.763 645.281 280.769C638.613 290.748 631.098 300.156 624.396 310.126C618.759 318.509 613.009 328.668 604.682 334.694C597.357 339.995 590.399 338.365 582.516 335.983C572.962 333.096 563.058 331.673 553.695 328.092C543.562 324.218 533.976 318.722 524.09 314.24C519.481 312.15 513.963 310.963 509.62 308.357C505.876 306.113 506.435 304.928 506.16 300.149C505.839 294.573 505.469 288.993 505.222 283.413C505.057 279.663 507.085 274.579 505.708 271.78C516.932 273.726 527.902 276.332 539.046 278.638C545.148 279.9 551.032 281.46 557.197 282.452C559.546 282.83 562.758 282.819 564.862 283.843C566.541 283.361 567.396 283.668 567.429 284.762C567.51 285.356 567.637 285.942 567.811 286.518C571.253 288.084 573.254 284.726 576.239 281.505C579.922 277.53 582.68 273.053 585.383 268.382C591.425 257.939 598.389 248.117 603.98 237.379C609.679 226.433 614.307 214.714 619.139 203.357C623.571 192.939 626.409 181.671 631.307 171.499C633.493 166.958 636.263 163.204 639.498 159.368C642.168 156.203 646.275 149.374 650.261 147.921C651.315 147.536 654.076 148.182 655.273 148.097C657.66 147.926 659.787 147.05 662.229 147.242C667.517 147.656 673.282 151 677.508 153.94C674.777 156.374 667.946 159.333 672.853 163.717C677.615 167.974 680.245 160.338 682.062 156.993C690.618 164.019 689.382 173.708 690.37 183.635C690.886 188.819 692.245 193.923 693.121 199.028C693.752 202.703 693.309 206.503 693.489 210.254C693.949 219.787 694.907 228.912 694.861 238.311C694.811 248.358 694.127 258.06 693.323 268.034C691.97 284.826 688.869 301.623 686.211 318.282C684.715 327.646 682.667 336.743 680.68 345.956C678.424 356.411 674.252 366.314 671.912 376.743C669.528 373.712 667.734 373.697 663.878 374.099C660.912 374.408 658.92 373.702 659.093 377.819C659.206 380.489 661.561 382.529 664.167 382.995C667.566 383.602 668.721 381.907 670.473 379.332C670.882 384.207 667.604 389.304 666.307 394.065C665.081 398.577 664.267 403 662.205 407.318C660.193 411.531 658.47 415.686 656.435 419.859C655.497 421.778 654.62 423.728 653.672 425.643C653.192 426.612 652.627 427.948 651.912 428.766C650.233 430.681 650.501 429.753 648.536 430.844C644.256 433.222 645.863 432.629 645.763 437.539C645.666 442.382 643.182 445.939 639.2 448.661C630.751 454.438 622.417 456.044 612.811 458.963C603.861 461.682 594.434 464.016 584.957 463.962C573.35 463.898 561.897 462.376 550.29 462.222C537.484 462.052 524.556 462.122 511.777 462.564C506.512 462.746 501.624 462.981 496.541 464.325C490.639 465.887 484.93 465.267 478.847 465.03C465.869 464.525 452.444 463.521 439.636 463.431C430.414 463.366 420.684 462.722 411.427 463.278ZM74.9094 468.309C72.6023 469.528 67.4306 469.028 65.1111 468.689C61.0254 468.093 60.5877 466.474 57.9953 462.831C53.5334 456.557 49.9108 450.548 47.2856 443.281C42.2615 429.371 40.21 415.141 38.0045 400.591C35.5531 384.423 40.0297 367.665 41.6312 351.608C41.9992 347.923 42.5024 344.273 43.0844 340.617C43.4327 338.431 43.5237 330.995 44.9621 329.102C47.7258 325.466 60.5771 328.399 65.6299 328.728C79.7336 329.65 93.9299 329.865 108.027 330.025C115.544 330.11 123.102 330.425 130.544 330.483C133.962 330.51 137.303 330.341 140.733 330.008C141.881 329.897 143.001 329.633 144.157 329.569C148.114 329.35 147.816 328.777 148.839 332.281C150.631 338.419 149.252 346.229 149.723 352.601C150.352 361.115 150.692 369.749 150.536 378.281C150.392 386.166 150.661 394.032 150.367 401.934C150.244 405.207 149.886 407.875 149.023 411C148.047 414.533 146.974 422.788 144.543 425.233C144.266 425.512 142.2 424.863 141.652 425.556C140.807 426.624 140.962 428.884 140.382 429.574C138.504 431.808 134.623 431.985 131.808 432.989C124.083 435.744 116.997 438.734 109.716 442.449C103.211 445.767 92.7226 448.592 88.8115 455.139C87.0182 458.14 86.7764 462.098 85.1274 465.194C83.2497 468.722 87.0067 466.878 82.4063 468.309C80.3344 468.953 77.033 468.309 74.9094 468.309ZM760.714 428.412C761.299 436.558 765.888 444.317 767.485 452.327C768.233 456.077 769.501 459.764 770.379 463.492C771.222 467.069 774.266 471.304 773.958 474.843C762.723 470.841 751.343 469.834 739.6 468.755C728.471 467.731 716.714 467.324 705.678 467.319C694.432 467.313 682.408 466.215 670.828 466.044C658.719 465.866 646.426 465.552 634.492 464.297C640.733 459.675 648.541 455.335 653.149 448.904C658.158 441.914 660.76 433.155 665.167 425.779C674.013 410.976 679.636 392.608 684.272 375.978C693.633 342.405 704.093 309.452 706.615 274.629C711.412 277.086 715.221 286.619 717.623 291.366C720.69 297.427 722.295 303.997 724.288 310.439C728.393 323.708 731.234 337.465 736.259 350.608C745.865 375.73 752.039 402.8 760.714 428.412ZM150.84 232.743C148.762 247.758 144.405 262.968 144.238 278.164C144.201 281.507 144.767 285.22 144.071 288.516C143.326 292.036 140.906 295.147 139.509 298.492C137.291 303.801 131.674 314.684 137.091 319.183C137.201 314.913 141.108 309.492 143.076 305.758C146.042 300.133 149.939 294.99 153.154 289.505C159.885 278.023 167.427 266.787 176.101 256.665C184.549 246.805 194.286 238.059 203.245 228.671C205.936 225.85 227.53 198.699 228.388 199.078C221.69 224.907 210.304 247.381 194.723 269.007C187.083 279.608 177.914 286.585 168.614 295.566C160.87 303.045 146.274 311.043 148.951 323.299C136.845 322.135 124.818 320.275 112.602 320.275C114.611 304.813 116.149 289.597 119.736 274.389C123.808 257.121 126.566 239.336 130.011 221.915C133.527 204.129 139.491 186.911 143.202 169.16C146.755 152.161 149.807 135.193 152.412 118.005C154.564 127.529 153.77 137.989 154.534 147.707C155.314 157.634 155.238 167.379 154.979 177.365C154.498 195.914 152.521 214.238 150.84 232.743ZM98.3803 144.31C98.3123 136.371 96.7739 128.539 96.2993 120.618C96.1534 118.188 93.7332 101.608 95.9904 100.743C97.8468 104.79 98.2795 109.969 99.9654 114.215C101.65 118.458 103.903 122.499 105.519 126.771C109.02 136.025 110.228 146.496 110.605 156.335C111.459 178.588 111.9 200.792 110.404 223.046C109.763 232.584 109.271 242.139 109.447 251.697C109.639 262.213 111.25 271.341 109.294 281.771C107.358 292.1 106.142 302.386 105.497 312.865C105.045 320.22 104.863 319.7 97.8451 319.183C92.7791 318.809 87.6632 319.208 82.5899 318.976C84.9618 290.31 85.3495 261.584 89.1385 233.028C91.0719 218.459 91.1236 203.68 93.525 189.166C94.7183 181.956 96.7206 174.891 97.8714 167.673C99.1065 159.923 98.4983 152.12 98.3803 144.31ZM611.538 126.27C598.029 127.44 583.659 131.479 569.812 128.812C572.094 127.888 578.068 126.613 575.379 122.964C572.646 119.253 568.04 123.959 565.314 123.473C563.633 123.173 559.918 116.147 558.882 114.692C556.531 111.386 556.247 110.81 552.019 109.962C547.923 109.143 546.994 110.03 546.475 105.958C545.879 101.275 547.5 96.0095 547.339 91.2205C546.994 80.9108 543.668 71.8698 540.573 62.1698C553.725 65.0311 566.585 68.4242 580.033 70.2683C585.782 71.0567 594.725 72.8754 599.948 68.9676C601.306 67.9513 601.089 66.5793 602.2 65.4015C604.064 63.4254 607.521 61.3814 610.164 60.8183C626.431 57.3555 628.017 80.5444 619.866 89.2215C617.824 91.3959 614.983 92.4696 612.892 94.4621C610.102 97.1192 609.873 99.9181 609.466 103.974C608.702 111.58 609.739 119.216 612.984 126.173L611.538 126.27ZM414.142 235.744C409.34 236.655 404.328 236.447 399.514 237.225C397.803 237.501 392.675 238.465 391.171 237.465C388.874 235.938 388.058 230.338 386.972 227.73C385.062 223.143 382.36 219.141 380.539 214.47C373.097 195.392 366.158 176.237 357.157 157.81C360.606 156.913 363.255 156.878 366.732 156.415C370.354 155.932 373.637 153.79 377.093 152.87C380.377 151.996 383.817 152.218 387.071 151.201C388.864 150.642 390.402 149.397 392.169 148.961C394.986 148.269 398.274 147.864 399.949 149.713C401.666 151.61 402.268 156.81 403.203 159.26C405.691 165.786 408.582 172.085 410.666 178.761C412.547 184.783 414.334 190.741 415.989 196.817C417.738 203.232 421.186 208.519 423.285 214.647C424.883 219.312 426.39 224.08 426.628 229.054C426.86 233.906 427.567 234.215 422.714 234.991C420.264 235.382 416.447 236.837 414.142 235.744ZM98.1943 462.868C96.9436 463.451 95.7641 463.374 94.6577 462.635C105.501 458.056 116.048 451.704 127.361 448.561C137.972 445.615 148.286 442.094 158.509 438.465C166.815 435.516 174.283 433.22 181.793 428.03C186.352 424.88 190.402 421.337 193.534 416.734C197.022 411.608 197.798 404.314 201.575 399.698C206.672 405.296 212.661 409.536 218.693 413.985C220.779 415.524 225.785 418.879 226.499 421.261C227.399 424.267 224.986 427.142 223.793 430.183C220.737 437.973 219.243 445.758 217.585 453.857C216.921 457.102 215.486 461.981 212.819 463.341C210.392 464.578 203.361 463.679 200.34 463.449C184.579 462.255 169.098 461.032 153.242 462.12C135.299 463.35 116.09 464.2 98.1943 462.868ZM66.7142 318.527C63.8497 318.537 61.0516 318.178 58.1978 318.178C59.8452 310.487 55.9939 300.533 54.6284 292.855C53.1007 284.267 51.9377 275.386 50.9189 266.728C48.7716 248.493 47.7987 230.479 47.7708 212.11C47.7446 194.335 44.5088 178.092 39.9764 161.005C35.1097 142.655 27.1398 126.152 20.5503 108.454C27.7783 112.275 31.7796 121.216 35.5776 128.052C40.3789 136.694 43.5769 146.264 45.5374 155.967C49.3199 174.684 53.4687 193.457 57.8331 212.144C62.3777 231.6 65.0496 251.235 70.2557 270.533C72.7948 279.943 76.247 291.521 76.4388 301.226C76.5183 305.24 77.728 313.648 75.9085 317.134C74.207 320.396 70.4451 318.86 66.7142 318.527ZM499.095 294.386C499.246 296.385 499.388 298.285 499.743 300.259C495.776 300.221 490.751 296.104 487.348 294.256C483.202 292.005 479.052 289.521 474.997 287.258C467.17 282.888 458.284 280.009 449.926 276.419C440.326 272.295 431.501 267.312 422.32 262.347C419.113 260.612 396.064 250.621 396.451 247.892C401.511 247.723 406.571 247.555 411.632 247.387C415.97 247.243 422.689 248.223 426.844 246.882C429.119 246.147 431.674 243.442 432.533 241.323C433.383 239.226 431.472 229.584 432.583 228.969C438.246 234.751 441.807 242.437 446.871 248.675C452.466 255.569 459.697 259.595 467.666 263.259C476.466 267.305 485.574 270.438 494.568 273.906C498.361 275.368 498.285 276.205 498.616 280.364C498.985 285.012 498.945 289.726 499.095 294.386ZM41.8017 469.256C32.2624 470.28 22.4862 469.696 12.8723 470.495C9.37421 470.785 4.52464 471.218 8.044 475.912C10.2602 478.869 17.3596 477.921 20.5798 478.126C29.2257 478.676 38.3799 478.38 47.0455 478.252C48.8699 478.226 50.8861 477.683 52.7302 477.806C54.8587 477.946 57.4077 479.477 59.3477 479.465C60.5435 479.458 60.9721 478.196 62.0032 478.081C64.2497 477.828 66.4954 477.644 68.7608 477.645C103.012 477.652 136.793 476.964 170.958 476.927C187.295 476.91 203.895 476.628 220.225 475.861C223.655 475.699 243.184 476.401 242.643 470.226C242.365 467.046 235.991 466.597 233.665 466.26C231.942 466.01 230.153 466.049 228.426 465.957C223.838 465.711 221.828 466.815 222.796 461.795C226.467 442.754 233.046 427.017 247.1 413.327C258.592 402.132 272.431 391.977 285.447 382.629C301.253 371.277 314.074 359.339 323.458 341.969C328.938 331.826 333.525 321.455 336.341 310.24C337.354 306.205 337.377 301.616 338.619 297.726C339.574 294.731 341.751 292.636 343.033 289.533C358.757 315.798 379.599 337.773 398.709 361.454C407.84 372.768 418.256 383.514 429.166 393.356C432.403 396.277 435.424 399.327 438.446 402.47C440.974 405.101 444.987 407.44 447.121 410.358C449.168 413.158 448.664 413.024 445.548 415.248C441.429 418.186 436.889 420.628 432.705 423.493C426.017 428.074 418.717 431.944 412.737 437.457C406.27 443.418 400.619 450.324 394.967 457.047C391.199 461.527 386.255 467.277 385.308 472.942C384.994 474.816 383.802 479.452 385.375 480.825C386.719 481.998 386.584 481.553 388.252 480.837C390.439 479.9 391.082 477.748 393.754 476.723C400.588 474.1 408.859 475.001 415.97 474.969C423.085 474.937 430.258 475.736 437.369 475.706C453.606 475.64 469.498 476.955 485.731 477.66C502.973 478.41 520.425 476.611 537.609 476.866C550.341 477.055 563.412 476.103 576.495 476.81C583.225 477.174 589.834 476.332 596.396 476.238C604.987 476.114 613.81 477.283 622.474 477.449C636.696 477.723 650.744 477.722 665.053 478.064C695.83 478.8 726.441 479.561 757.237 480.049C761.345 480.113 765.842 479.974 769.902 480.436C774.21 480.928 771.986 481.844 774.942 483.395C783.218 487.737 781.307 471.643 781.109 468.478C780.045 451.515 775.739 434.879 770.564 418.775C765.654 403.502 761.669 387.517 757.511 371.913C752.96 354.835 747.03 338.456 741.645 321.546C736.128 304.218 731.635 286.215 721.614 270.855C719.331 267.357 716.973 263.592 713.301 261.387C709.185 258.914 709.008 260.358 709.011 255.833C709.014 251.571 708.751 245.877 709.757 241.811C710.666 238.136 710.526 240.315 712.572 237.676C714.238 235.529 715.98 234.062 717.175 231.456C724.515 238.899 741.318 234.971 748.41 229.612C757.09 223.052 763.702 211.985 766.125 201.444C768.071 192.98 765.683 176.847 756.315 172.777C751.748 170.792 734.974 169.292 734.303 162.826C733.957 159.488 739.861 154.794 741.223 151.923C743.747 146.606 746.172 139.533 746.873 133.704C748.244 122.326 743.079 109.603 734.851 101.918C719.757 87.8192 693.199 80.5838 673.784 89.5289C677.887 73.8557 680.364 60.3347 678.297 44.0313C676.517 29.9858 668.23 22.1274 656.827 15.1313C637.368 3.19115 610.907 -1.52155 588.657 1.95028C583.601 2.73955 578.749 4.43202 574.067 5.77863C567.266 7.73501 559.124 7.08344 552.703 10.2621C548.047 12.566 544.511 17.1557 540.422 20.2202C535.648 23.7978 531.681 29.1375 528.364 34.0756C521.27 44.6353 524.042 64.2336 529.979 74.8335C531.252 77.107 532.825 79.0208 534.931 80.5723C537.125 82.1869 540.468 82.6893 541.598 84.7834C544.493 90.1477 541.7 101.761 541.314 107.558C540.864 114.291 544.268 119.348 551.902 119.884C556.318 120.196 556.459 117.634 558.573 122.905C559.944 126.322 561.189 130.045 563.166 133.178C567.244 139.634 574.712 139.003 581.515 138.829C589.39 138.625 597.146 137.381 605.025 136.596C602.944 143.264 597.248 148.438 593.691 154.378C588.881 162.412 585.987 169.071 585.205 178.431C584.605 185.622 585.9 191.301 590.821 196.653C592.857 198.868 594.663 198.977 594.157 201.533C593.849 203.092 591.153 205.664 590.199 206.908C587.676 210.199 584.746 213.22 582.525 216.736C573.978 230.261 571.453 250.879 571.432 266.623C571.431 267.345 571.046 268.88 571.365 269.627C571.601 270.179 573.394 271.925 573.421 272.075C573.771 274.1 571.798 277.57 568.7 277.913C565.447 278.273 559.49 275.558 556.464 274.667C551.622 273.239 546.686 272.185 541.854 270.719C534.051 268.351 526.284 266.463 518.351 264.607C514.766 263.769 511.161 263.071 507.565 262.288C503.468 261.396 501.565 259.672 499.451 263.84C497.637 267.417 498.765 268.065 494.371 266.263C490.008 264.472 485.745 262.252 481.486 260.231C473.974 256.668 465.027 253.491 458.546 248.23C447.736 239.453 443.734 225.475 433.388 216.162C430.507 213.569 428.788 213.523 426.967 209.931C425.017 206.086 424.012 201.155 422.987 197.019C421.191 189.777 419.914 182.51 418.285 175.275C416.256 166.261 411.872 158.097 408.674 149.5C407.427 146.15 406.781 141.892 404.771 138.882C404.238 138.084 403.22 137.634 402.804 136.973C401.374 134.705 401.389 134.082 401.018 131.354C399.285 118.605 391.675 125.312 383.359 128.235C379.856 129.467 363.218 137.456 369.571 142.768C361.998 144.966 349.869 143.772 349.971 154.625C350.023 160.186 353.349 166.134 355.134 171.34C356.72 175.961 358.253 180.601 359.863 185.216C363.391 195.324 367.672 205.129 371.115 215.269C372.685 219.89 373.98 224.619 376.165 228.98C378.092 232.827 382.758 237.068 383.527 241.275C363.346 232.665 344.676 220.217 322.087 221.01C312.196 221.357 303.22 225.514 297.757 234.211C290.908 245.112 286.402 257.317 279.709 268.318C255.357 308.338 226.314 344.696 199.582 383.06C197.529 386.008 194.888 388.795 194.176 392.438C193.711 394.815 194.613 397.193 194.056 399.476C192.899 404.222 187.056 410.147 183.094 412.873C175.5 418.101 163.154 425.474 153.677 424.822C159.625 410.528 159.545 394.866 159.269 379.619C159.006 365.136 157.441 350.769 155.583 336.435C155.162 333.192 154.796 330.186 153.864 327.042C152.794 323.436 151.326 323.778 154.529 320.536C159.46 315.545 165.325 311.438 170.296 306.384C181.047 295.456 192.066 286.89 200.527 273.84C208.574 261.427 217.063 248.655 223.02 235.062C229.152 221.069 231.604 206.125 234.648 191.306C235.883 185.293 240.388 178.579 239.483 172.3C238.339 164.363 234.659 170.142 233.16 174.413C228.589 187.451 217.884 199.119 209.017 209.604C199.438 220.931 187.722 230.408 177.723 241.406C166.834 253.383 159.376 267.149 149.693 279.934C149.693 264.067 155.111 247.909 157.327 232.212C159.277 218.396 159.889 204.537 161.122 190.661C163.92 159.141 161.502 126.692 157.573 95.3972C155.706 80.5346 156.765 66.0219 156.709 51.1085C156.691 46.3622 158.655 35.423 156.151 31.2111C151.356 23.1437 148.559 40.784 148.316 43.4141C146.866 59.0816 149.467 74.5745 148.138 90.1747C146.75 106.466 143.737 122.3 141.173 138.402C138.396 155.838 133.874 172.88 129.545 189.981C124.999 207.936 121.177 226.265 116.123 244.077C114.76 238.478 116.672 231.6 117.05 225.898C117.589 217.738 118.642 209.577 118.733 201.395C118.879 188.356 118.981 175.075 118.243 162.097C117.516 149.305 117.736 135.9 113.813 123.576C111.95 117.726 109.22 112.02 106.548 106.509C103.251 99.7149 102.086 93.1269 100.26 85.9005C98.6967 79.7117 96.4083 73.686 95.3666 67.3735C94.7191 63.4476 92.9119 51.8584 88.4172 60.6388C85.8076 65.7351 86.9354 73.2902 86.8625 78.7651C86.769 85.7841 87.8435 92.609 88.0083 99.5985C88.3288 113.312 88.559 127.009 89.5819 140.7C90.6548 155.063 89.7179 167.936 86.9854 182.089C83.9947 197.581 83.1194 213.107 81.5695 228.788C80.7704 236.885 79.4229 244.937 78.7722 253.045C78.4279 257.339 80.1934 269.652 77.1166 272.71C76.8191 265.272 74.6881 257.829 73.0727 250.582C71.1589 241.997 70.386 232.971 68.9755 224.263C66.6913 210.154 62.2589 196.681 59.3264 182.731C53.2818 153.973 48.2593 117.013 22.9271 98.1904C19.6127 95.7275 15.9704 93.9097 12.3871 91.8828C10.3586 90.7353 7.34488 87.7668 5.02378 87.2488C2.49039 86.6832 1.43393 87.1225 0.406973 90.0616C-1.02487 94.1588 1.59373 96.0726 4.0386 99.0486C12.4993 109.346 16.1138 122.547 21.3379 134.623C33.3008 162.277 38.5937 191.445 38.6544 221.338C38.6864 236.986 39.7658 252.079 41.4345 267.633C43.2302 284.372 45.5948 302.075 50.6804 318.178C45.58 319.321 40.0461 317.616 38.6618 323.545C38.3217 325.002 38.9363 326.724 38.5601 328.619C38.1946 330.462 37.3152 332.294 36.7947 334.107C35.7194 337.855 35.1506 341.553 34.6277 345.402C32.6058 360.276 29.134 374.423 28.7643 389.504C28.4242 403.445 31.1534 417.569 33.668 431.242C36.2013 445.012 43.4671 456.752 49.1871 469.205C46.725 469.205 44.2638 469.231 41.8017 469.256Z" fill="#054461"/>
<path fill-rule="evenodd" clip-rule="evenodd" d="M365.544 437.6C368.257 438.367 381.354 439.815 381.351 443.924C381.35 446.389 368.27 446.34 365.956 446.608C365.818 443.606 365.681 440.603 365.544 437.6ZM336.636 465.957C329.089 467.392 318.845 465.375 314.02 458.721C311.766 455.612 310.697 450.884 309.962 447.174C309.261 443.638 307.098 434.815 308.57 431.501C310.377 427.43 327.717 431.684 332.767 432.151C341.577 432.964 350.687 433.06 359.502 432.486C359.502 441.588 359.968 450.46 354.614 458.294C350.751 463.947 343.498 465.281 336.636 465.957ZM338.153 477.201C346.353 474.199 354.963 476.15 360.302 467.347C361.657 465.113 362.798 462.712 363.618 460.231C364.018 459.144 364.33 458.031 364.551 456.891C364.134 454.437 365.033 453.745 367.248 454.815C371.594 453.97 376.36 456.953 380.938 456.074C392.042 453.941 390.025 438.035 382.573 432.529C381.101 431.441 379.631 431.138 377.946 430.601C374.231 429.417 372.221 430.739 368.824 430.403C366.078 430.132 365.323 427.253 362.373 425.985C360.441 425.155 357.759 425.219 355.728 425.136C345.099 424.699 334.437 424.703 323.741 424.01C318.752 423.687 313.365 424.477 308.478 423.625C306.19 423.225 306.518 421.702 304.351 423.038C302.108 424.422 303.077 429.538 303.19 431.578C303.845 443.374 304.547 456.025 310.866 466.338C316.648 475.775 328.025 476.74 338.153 477.201Z" fill="#054461"/>
<path fill-rule="evenodd" clip-rule="evenodd" d="M38.6382 228.935C38.6431 226.4 38.6488 223.866 38.6545 221.337C38.6496 223.873 38.6439 226.404 38.6382 228.935Z" fill="#054461"/>
<path fill-rule="evenodd" clip-rule="evenodd" d="M709.749 239.342C709.757 241.811 709.765 244.279 709.773 246.742C709.766 244.272 709.758 241.807 709.749 239.342Z" fill="#054461"/>
<path fill-rule="evenodd" clip-rule="evenodd" d="M158.992 374.624C159.084 376.291 159.177 377.956 159.269 379.619C159.176 377.951 159.084 376.288 158.992 374.624Z" fill="#054461"/>
<path fill-rule="evenodd" clip-rule="evenodd" d="M41.8008 469.255C43.4228 469.238 45.0448 469.222 46.6667 469.205C45.0374 468.525 43.4154 468.555 41.8008 469.255Z" fill="#054461"/>
<path fill-rule="evenodd" clip-rule="evenodd" d="M185.81 476.633C184.646 476.615 183.482 476.597 182.329 476.578C183.496 476.595 184.653 476.615 185.81 476.633Z" fill="#054461"/>
<path fill-rule="evenodd" clip-rule="evenodd" d="M39.27 249.496C39.2413 248.236 39.2126 246.977 39.1839 245.723C39.2126 246.983 39.2413 248.24 39.27 249.496Z" fill="#054461"/>
<path fill-rule="evenodd" clip-rule="evenodd" d="M148.138 90.1747C148.234 88.8757 148.33 87.5774 148.427 86.2816C148.33 87.5815 148.234 88.8781 148.138 90.1747Z" fill="#054461"/>
<path fill-rule="evenodd" clip-rule="evenodd" d="M38.6953 233.896C38.6797 232.593 38.6642 231.292 38.6486 229.994C38.6642 231.298 38.6797 232.597 38.6953 233.896Z" fill="#054461"/>
<path fill-rule="evenodd" clip-rule="evenodd" d="M404.798 475.019C403.763 475.034 402.728 475.049 401.701 475.062C402.738 475.046 403.768 475.033 404.798 475.019Z" fill="#054461"/>
<path fill-rule="evenodd" clip-rule="evenodd" d="M28.8805 385.585C28.9534 384.442 29.0264 383.301 29.0977 382.161C29.0247 383.303 28.9526 384.444 28.8805 385.585Z" fill="#054461"/>
<path fill-rule="evenodd" clip-rule="evenodd" d="M342.598 476.571C341.7 476.566 340.802 476.561 339.913 476.555C340.813 476.56 341.706 476.565 342.598 476.571Z" fill="#054461"/>
<path fill-rule="evenodd" clip-rule="evenodd" d="M549.636 476.568C548.783 476.574 547.929 476.58 547.085 476.588C547.941 476.583 548.789 476.575 549.636 476.568Z" fill="#054461"/>
<path fill-rule="evenodd" clip-rule="evenodd" d="M600.002 476.706C599.132 476.657 598.263 476.608 597.401 476.56C598.273 476.61 599.137 476.657 600.002 476.706Z" fill="#054461"/>
<path fill-rule="evenodd" clip-rule="evenodd" d="M358.871 145.081C360.166 144.969 361.461 144.858 362.756 144.745C361.46 144.836 360.089 144.069 358.871 145.081Z" fill="#054461"/>
<path fill-rule="evenodd" clip-rule="evenodd" d="M28.7576 469.748C30.0345 469.619 31.3114 469.49 32.5884 469.36C31.3106 469.49 30.0345 469.619 28.7576 469.748Z" fill="#054461"/>
<path fill-rule="evenodd" clip-rule="evenodd" d="M117.825 152.943C117.91 154.062 117.997 155.181 118.083 156.297C117.996 155.176 117.91 154.059 117.825 152.943Z" fill="#054461"/>
<path fill-rule="evenodd" clip-rule="evenodd" d="M38.374 199.588C38.2871 198.528 38.2003 197.467 38.1134 196.411C38.2003 197.473 38.288 198.53 38.374 199.588Z" fill="#054461"/>
<path fill-rule="evenodd" clip-rule="evenodd" d="M118.334 170.297C118.425 171.414 118.518 172.531 118.609 173.644C118.517 172.526 118.425 171.411 118.334 170.297Z" fill="#054461"/>
<path fill-rule="evenodd" clip-rule="evenodd" d="M38.915 242.402C38.9232 241.323 38.9313 240.243 38.9387 239.167C38.2421 240.243 38.2699 241.32 38.915 242.402Z" fill="#054461"/>
<path fill-rule="evenodd" clip-rule="evenodd" d="M158.974 397.415C158.984 398.497 158.993 399.579 159.004 400.656C159.719 399.566 159.577 398.488 158.974 397.415Z" fill="#054461"/>
<path fill-rule="evenodd" clip-rule="evenodd" d="M77.5854 272.243C77.71 271.148 77.8354 270.052 77.96 268.961C77.8346 270.057 77.71 271.151 77.5854 272.243Z" fill="#054461"/>
<path fill-rule="evenodd" clip-rule="evenodd" d="M751.514 171.736C752.361 172.854 753.514 172.088 754.521 172.224C753.517 172.061 752.516 171.899 751.514 171.736Z" fill="#054461"/>
<path fill-rule="evenodd" clip-rule="evenodd" d="M332.869 424.786C333.938 424.788 335.008 424.789 336.077 424.79C335.007 424.789 333.938 424.787 332.869 424.786Z" fill="#054461"/>
<path fill-rule="evenodd" clip-rule="evenodd" d="M161.984 176.333C161.884 177.242 161.785 178.152 161.685 179.059C161.785 178.147 161.884 177.24 161.984 176.333Z" fill="#054461"/>
<path fill-rule="evenodd" clip-rule="evenodd" d="M690.583 85.9792C691.658 86.0005 692.734 86.0218 693.809 86.0431C692.745 85.417 691.673 85.2358 690.583 85.9792Z" fill="#054461"/>
<path fill-rule="evenodd" clip-rule="evenodd" d="M118.36 186.034C118.43 186.988 118.5 187.942 118.569 188.891C118.499 187.937 118.43 186.986 118.36 186.034Z" fill="#054461"/>
<path fill-rule="evenodd" clip-rule="evenodd" d="M147.849 68.9283C147.766 68.0587 147.683 67.1891 147.6 66.3244C147.684 67.1956 147.766 68.062 147.849 68.9283Z" fill="#054461"/>
<path fill-rule="evenodd" clip-rule="evenodd" d="M156.299 66.2039C156.383 67.1473 156.468 68.0915 156.552 69.0315C156.467 68.0865 156.383 67.1448 156.299 66.2039Z" fill="#054461"/>
<path fill-rule="evenodd" clip-rule="evenodd" d="M623.383 3.18329C624.478 3.31606 625.572 3.44884 626.665 3.5808C625.571 3.44802 624.478 3.31606 623.383 3.18329Z" fill="#054461"/>
<path fill-rule="evenodd" clip-rule="evenodd" d="M702.413 86.73C703.535 86.8447 704.658 86.9595 705.78 87.0742C704.657 86.9595 703.535 86.8447 702.413 86.73Z" fill="#054461"/>
<path fill-rule="evenodd" clip-rule="evenodd" d="M87.1118 89.4953C87.043 88.6175 86.9749 87.7389 86.9069 86.866C86.9749 87.7446 87.0438 88.62 87.1118 89.4953Z" fill="#054461"/>
<path fill-rule="evenodd" clip-rule="evenodd" d="M739.267 234.365C738.62 234.374 737.974 234.383 737.337 234.393C737.986 234.383 738.626 234.374 739.267 234.365Z" fill="#054461"/>
<path fill-rule="evenodd" clip-rule="evenodd" d="M156.266 342.704C156.331 343.676 156.396 344.648 156.46 345.617C156.395 344.645 156.33 343.675 156.266 342.704Z" fill="#054461"/>
<path fill-rule="evenodd" clip-rule="evenodd" d="M90.2997 153.539C90.326 152.602 90.3514 151.666 90.3784 150.732C90.3506 151.669 90.3251 152.604 90.2997 153.539Z" fill="#054461"/>
<path fill-rule="evenodd" clip-rule="evenodd" d="M595.84 0.966698C596.837 0.966698 597.835 0.967517 598.831 0.967517C597.833 0.282331 596.836 0.299543 595.84 0.966698Z" fill="#054461"/>
<path fill-rule="evenodd" clip-rule="evenodd" d="M329.543 221.458C330.635 221.486 331.728 221.514 332.819 221.542C331.746 220.783 330.652 220.764 329.543 221.458Z" fill="#054461"/>
<path fill-rule="evenodd" clip-rule="evenodd" d="M234.067 474.98C233.42 474.993 232.772 475.007 232.132 475.023C232.783 475.011 233.426 474.995 234.067 474.98Z" fill="#054461"/>
<path fill-rule="evenodd" clip-rule="evenodd" d="M209.68 476.119C209.033 476.096 208.386 476.073 207.749 476.051C208.398 476.074 209.039 476.097 209.68 476.119Z" fill="#054461"/>
<path fill-rule="evenodd" clip-rule="evenodd" d="M591.363 476.569C590.689 476.586 590.014 476.603 589.349 476.62C590.026 476.602 590.694 476.586 591.363 476.569Z" fill="#054461"/>
<path fill-rule="evenodd" clip-rule="evenodd" d="M29.4412 374.746C29.5371 373.82 29.633 372.893 29.7297 371.971C29.633 372.898 29.5371 373.822 29.4412 374.746Z" fill="#054461"/>
<path fill-rule="evenodd" clip-rule="evenodd" d="M117.534 218.613C117.457 219.496 117.381 220.379 117.306 221.256C117.382 220.372 117.458 219.493 117.534 218.613Z" fill="#054461"/>
<path fill-rule="evenodd" clip-rule="evenodd" d="M83.6324 203.458C83.7373 202.522 83.8422 201.586 83.9463 200.654C83.8414 201.59 83.7373 202.524 83.6324 203.458Z" fill="#054461"/>
<path fill-rule="evenodd" clip-rule="evenodd" d="M89.1663 135.113C89.1966 134.164 89.2261 133.216 89.2556 132.269C89.2253 133.219 89.1958 134.165 89.1663 135.113Z" fill="#054461"/>
<path fill-rule="evenodd" clip-rule="evenodd" d="M38.2101 207.218C38.2544 206.285 38.2979 205.351 38.3413 204.421C38.2971 205.356 38.2544 206.287 38.2101 207.218Z" fill="#054461"/>
<path fill-rule="evenodd" clip-rule="evenodd" d="M488.444 465.418C486.404 465.312 484.363 465.206 482.322 465.099C484.363 465.206 486.404 465.311 488.444 465.418Z" fill="#054461"/>
<path fill-rule="evenodd" clip-rule="evenodd" d="M611.539 126.27C609.767 126.424 607.996 126.578 606.227 126.731C607.998 126.577 609.768 126.423 611.539 126.27Z" fill="#054461"/>
<path fill-rule="evenodd" clip-rule="evenodd" d="M111.462 203.273C111.407 204.963 111.35 206.653 111.296 208.338C111.351 206.647 111.407 204.961 111.462 203.273Z" fill="#054461"/>
<path fill-rule="evenodd" clip-rule="evenodd" d="M74.9094 468.308C73.0604 468.42 71.2122 468.532 69.3632 468.644C71.2237 468.728 73.112 469.259 74.9094 468.308Z" fill="#054461"/>
<path fill-rule="evenodd" clip-rule="evenodd" d="M85.8511 268.403C85.8371 266.79 85.8232 265.178 85.8101 263.57C85.824 265.183 85.8371 266.793 85.8511 268.403Z" fill="#054461"/>
<path fill-rule="evenodd" clip-rule="evenodd" d="M90.5835 319.054C88.9615 319.075 87.3379 319.097 85.7167 319.119C87.3395 319.096 88.9615 319.075 90.5835 319.054Z" fill="#054461"/>
<path fill-rule="evenodd" clip-rule="evenodd" d="M498.977 290.712C499.018 291.941 499.058 293.169 499.097 294.392C499.056 293.162 499.016 291.937 498.977 290.712Z" fill="#054461"/>
<path fill-rule="evenodd" clip-rule="evenodd" d="M63.5835 238.688C63.6498 239.911 63.7163 241.133 63.781 242.349C63.7138 241.125 63.6482 239.907 63.5835 238.688Z" fill="#054461"/>
<path fill-rule="evenodd" clip-rule="evenodd" d="M98.1943 462.867C97.0141 462.787 95.8339 462.708 94.6561 462.631C95.5437 463.342 96.4363 463.401 98.1943 462.867Z" fill="#054461"/>
<path fill-rule="evenodd" clip-rule="evenodd" d="M106.093 303.047C106.012 304.365 105.93 305.683 105.85 306.997C105.931 305.678 106.012 304.362 106.093 303.047Z" fill="#054461"/>
<path fill-rule="evenodd" clip-rule="evenodd" d="M547.377 95.0292C547.365 93.7564 547.353 92.4836 547.34 91.2156C547.352 92.4901 547.364 93.7597 547.377 95.0292Z" fill="#054461"/>
<path fill-rule="evenodd" clip-rule="evenodd" d="M104.664 319.32L100.265 319.224C101.717 319.926 103.183 319.95 104.664 319.32Z" fill="#054461"/>
<path fill-rule="evenodd" clip-rule="evenodd" d="M64.0819 328.714C65.1195 328.723 66.1563 328.731 67.1865 328.741C66.1465 328.733 65.1138 328.723 64.0819 328.714Z" fill="#054461"/>
<path fill-rule="evenodd" clip-rule="evenodd" d="M443.943 463.374C442.507 463.393 441.071 463.412 439.636 463.43C441.082 464.155 442.52 464.257 443.943 463.374Z" fill="#054461"/>
<path fill-rule="evenodd" clip-rule="evenodd" d="M110.956 214.127C110.885 215.45 110.813 216.773 110.742 218.091C110.813 216.767 110.885 215.447 110.956 214.127Z" fill="#054461"/>
<path fill-rule="evenodd" clip-rule="evenodd" d="M576.113 129.375C574.884 128.77 573.646 128.668 572.395 129.31C573.635 129.332 574.874 129.354 576.113 129.375Z" fill="#054461"/>
<path fill-rule="evenodd" clip-rule="evenodd" d="M151.144 229.402C151.042 230.517 150.941 231.634 150.839 232.746C150.941 231.629 151.042 230.515 151.144 229.402Z" fill="#054461"/>
<path fill-rule="evenodd" clip-rule="evenodd" d="M47.3602 203.366C47.9913 202.274 47.9692 201.188 47.3291 200.112C47.3397 201.198 47.3495 202.282 47.3602 203.366Z" fill="#054461"/>
<path fill-rule="evenodd" clip-rule="evenodd" d="M110.755 165.466C110.755 166.57 110.754 167.675 110.754 168.776C110.755 167.67 110.755 166.568 110.755 165.466Z" fill="#054461"/>
<path fill-rule="evenodd" clip-rule="evenodd" d="M66.7141 318.527C65.4495 318.139 64.1848 317.591 62.9259 318.54C64.1889 318.536 65.4511 318.531 66.7141 318.527Z" fill="#054461"/>
<path fill-rule="evenodd" clip-rule="evenodd" d="M649.819 464.921C648.653 464.409 647.49 464.14 646.342 464.961C647.502 464.947 648.66 464.934 649.819 464.921Z" fill="#054461"/>
<path fill-rule="evenodd" clip-rule="evenodd" d="M411.427 463.277C410.181 462.733 408.937 462.434 407.707 463.316C408.948 463.303 410.187 463.29 411.427 463.277Z" fill="#054461"/>
<path fill-rule="evenodd" clip-rule="evenodd" d="M688.853 302.041C688.759 303.167 688.665 304.292 688.572 305.414C688.666 304.288 688.76 303.165 688.853 302.041Z" fill="#054461"/>
<path fill-rule="evenodd" clip-rule="evenodd" d="M399.514 237.224C398.288 236.778 397.066 236.545 395.862 237.291C397.079 237.268 398.297 237.246 399.514 237.224Z" fill="#054461"/>
<path fill-rule="evenodd" clip-rule="evenodd" d="M110.975 270.721C110.907 271.821 110.839 272.921 110.772 274.018C110.84 272.918 110.908 271.819 110.975 270.721Z" fill="#054461"/>
<path fill-rule="evenodd" clip-rule="evenodd" d="M689.645 171.474C689.746 172.36 689.848 173.247 689.949 174.128C689.847 173.24 689.746 172.358 689.645 171.474Z" fill="#054461"/>
<path fill-rule="evenodd" clip-rule="evenodd" d="M760.714 428.412C760.777 429.275 760.839 430.137 760.901 430.995C760.837 430.131 760.775 429.271 760.714 428.412Z" fill="#054461"/>
<path fill-rule="evenodd" clip-rule="evenodd" d="M85.3069 276.542C85.3757 275.65 85.4446 274.759 85.5134 273.871C85.4446 274.764 85.3757 275.654 85.3069 276.542Z" fill="#054461"/>
<path fill-rule="evenodd" clip-rule="evenodd" d="M499.391 298.3C499.187 298.949 498.983 299.599 498.779 300.249C500.142 300.578 500.346 299.928 499.391 298.3Z" fill="#054461"/>
<path fill-rule="evenodd" clip-rule="evenodd" d="M417.47 235.757C416.36 235.752 415.251 235.748 414.141 235.743C415.249 236.269 416.358 236.631 417.47 235.757Z" fill="#054461"/>
<path fill-rule="evenodd" clip-rule="evenodd" d="M688.23 307.37C688.192 308.353 688.155 309.337 688.119 310.318C688.157 309.333 688.194 308.351 688.23 307.37Z" fill="#054461"/>
<path fill-rule="evenodd" clip-rule="evenodd" d="M148.45 317.739C148.41 318.645 148.37 319.55 148.33 320.451C148.369 319.543 148.41 318.642 148.45 317.739Z" fill="#054461"/>
<path fill-rule="evenodd" clip-rule="evenodd" d="M699.231 467.101C698.178 466.402 697.122 466.463 696.065 467.09C697.12 467.094 698.176 467.098 699.231 467.101Z" fill="#054461"/>
<path fill-rule="evenodd" clip-rule="evenodd" d="M671.497 158.822C671.441 159.746 671.383 160.672 671.324 161.591C671.381 160.664 671.439 159.743 671.497 158.822Z" fill="#054461"/>
<path fill-rule="evenodd" clip-rule="evenodd" d="M704.71 467.197C703.615 467.201 702.52 467.206 701.426 467.21C702.525 467.958 703.619 467.993 704.71 467.197Z" fill="#054461"/>
<path fill-rule="evenodd" clip-rule="evenodd" d="M98.3804 144.309C98.3714 143.37 98.3632 142.432 98.355 141.495C98.364 142.435 98.3722 143.372 98.3804 144.309Z" fill="#054461"/>
<path fill-rule="evenodd" clip-rule="evenodd" d="M601.081 127.885C600.034 128.021 598.986 128.158 597.94 128.294C598.987 128.158 600.034 128.021 601.081 127.885Z" fill="#054461"/>
<path fill-rule="evenodd" clip-rule="evenodd" d="M693.513 208.942C693.499 209.819 693.485 210.697 693.468 211.57C693.482 210.691 693.497 209.817 693.513 208.942Z" fill="#054461"/>
<path fill-rule="evenodd" clip-rule="evenodd" d="M91.3286 208.816C91.386 207.923 91.4434 207.029 91.5007 206.14C91.4434 207.035 91.3852 207.926 91.3286 208.816Z" fill="#054461"/>
<path fill-rule="evenodd" clip-rule="evenodd" d="M335.628 466.149C334.336 466.266 333.043 466.384 331.751 466.5C333.044 466.383 334.336 466.266 335.628 466.149Z" fill="#054461"/>
<path fill-rule="evenodd" clip-rule="evenodd" d="M339.947 432.691C340.646 432.702 341.343 432.713 342.036 432.727C341.335 432.718 340.641 432.704 339.947 432.691Z" fill="#054461"/>
<path fill-rule="evenodd" clip-rule="evenodd" d="M339.888 465.638C338.804 465.744 337.719 465.852 336.636 465.958C337.72 465.851 338.804 465.744 339.888 465.638Z" fill="#054461"/>
<path fill-rule="evenodd" clip-rule="evenodd" d="M534.969 392.637C533.559 400.606 545.945 408.401 546.927 397.072C547.286 392.928 544.515 390.016 541.413 387.483C537.01 383.889 534.551 387.331 534.969 392.637Z" fill="#054461"/>
<path fill-rule="evenodd" clip-rule="evenodd" d="M671.493 295.402C668.575 296.596 646.283 303.86 657.862 307.514C660.928 308.481 665.561 308.625 668.218 306.921C671.415 304.871 674.639 298.82 671.493 295.402Z" fill="#054461"/>
<path fill-rule="evenodd" clip-rule="evenodd" d="M666.006 187.474C658.44 186.595 651.468 199.023 660.797 198.619C667.587 198.325 676.719 187.474 666.006 187.474Z" fill="#054461"/>
<path fill-rule="evenodd" clip-rule="evenodd" d="M638.939 217.945C632.621 223.458 644.332 235.796 648.982 231.021C651.356 228.581 649.166 223.327 647.207 221.286C645.195 219.192 641.617 218.799 638.939 217.945Z" fill="#054461"/>
<path fill-rule="evenodd" clip-rule="evenodd" d="M620.129 360.858C623.859 361.45 640.263 366.81 636.842 357.074C635.537 353.361 631.898 354.463 628.571 354.634C623.209 354.907 620.129 354.651 620.129 360.858Z" fill="#054461"/>
<path fill-rule="evenodd" clip-rule="evenodd" d="M630.934 385.935C625.35 388.922 633.513 405.64 638.141 402.083C644.562 397.148 635.78 387.436 630.934 385.935Z" fill="#054461"/>
<path fill-rule="evenodd" clip-rule="evenodd" d="M606.581 372.496C603.866 371.387 591.066 383.699 595.938 387.124C598.436 388.88 603.167 385.87 604.673 384.055C607.496 380.652 607.751 376.454 606.581 372.496Z" fill="#054461"/>
<path fill-rule="evenodd" clip-rule="evenodd" d="M680.429 271.861C677.654 272.317 672.862 272.461 672.683 276.361C672.526 279.788 676.823 280.899 679.848 281.168C682.987 281.446 687.142 280.56 687.202 276.614C687.265 272.356 680.527 272.613 680.429 271.861Z" fill="#054461"/>
<path fill-rule="evenodd" clip-rule="evenodd" d="M611.994 441.561C609.039 443.355 595.253 449.815 601.162 454.482C603.374 456.229 610.077 452.622 611.586 450.788C613.387 448.6 615.146 443.473 611.994 441.561Z" fill="#054461"/>
<path fill-rule="evenodd" clip-rule="evenodd" d="M573.672 394.685C574.099 387.554 562.068 384.716 564.562 394.837C565.266 397.691 565.946 402.023 569.474 402.188C573.644 402.384 573.795 397.45 573.672 394.685Z" fill="#054461"/>
<path fill-rule="evenodd" clip-rule="evenodd" d="M610.834 270.688C610.75 276.097 621.115 280.867 621.195 272.293C621.266 264.632 610.447 262.389 610.834 270.688Z" fill="#054461"/>
<path fill-rule="evenodd" clip-rule="evenodd" d="M617.678 242.515C615.124 243.338 611.73 243.761 611.506 247.006C611.267 250.44 614.457 251.969 617.327 251.776C619.681 251.618 623.164 249.875 623.592 247.322C624.219 243.573 620.56 243.328 617.678 242.515Z" fill="#054461"/>
<path fill-rule="evenodd" clip-rule="evenodd" d="M665.167 341.549C665.211 337.086 656.266 331.722 654.618 336.901C654.091 338.558 658.307 345.989 659.71 346.546C663.42 348.019 663.938 344.586 665.167 341.549Z" fill="#054461"/>
<path fill-rule="evenodd" clip-rule="evenodd" d="M591.866 415.84C594.889 418.546 603.956 426.146 603.278 415.944C602.846 409.426 591.069 409.766 591.866 415.84Z" fill="#054461"/>
<path fill-rule="evenodd" clip-rule="evenodd" d="M444.139 444.999C443.148 440.71 428.963 448.152 433.697 453.57C435.285 455.389 439.44 453.743 441.037 452.665C444.198 450.532 444.267 448.562 444.139 444.999Z" fill="#054461"/>
<path fill-rule="evenodd" clip-rule="evenodd" d="M523.177 353.173C522.624 351.261 522.009 347.879 520.185 346.659C516.884 344.451 514.009 347.782 514.008 351.292C514.008 357.841 521.462 359.906 523.177 353.173Z" fill="#054461"/>
<path fill-rule="evenodd" clip-rule="evenodd" d="M558.336 429.739C554.652 430.583 546.452 439.537 551.208 443.189C555.785 446.704 561.873 432.413 558.336 429.739Z" fill="#054461"/>
<path fill-rule="evenodd" clip-rule="evenodd" d="M554.829 361.968C550.094 362.346 543.585 370.015 550.945 371.234C556.703 372.188 563.399 363.847 554.829 361.968Z" fill="#054461"/>
<path fill-rule="evenodd" clip-rule="evenodd" d="M511.956 397.258C510.768 393.257 499.023 397.544 499.683 401.948C500.034 404.29 504.836 404.84 507.36 404.221C511.076 403.309 512.041 400.871 511.956 397.258Z" fill="#054461"/>
<path fill-rule="evenodd" clip-rule="evenodd" d="M650.4 173.83C650.315 168.658 640.377 166.55 639.65 171.762C638.992 176.47 650.525 181.481 650.4 173.83Z" fill="#054461"/>
<path fill-rule="evenodd" clip-rule="evenodd" d="M515.24 450.547C514.523 447.947 514.214 444.817 510.966 444.474C507.247 444.081 507.357 446.934 507.794 449.889C508.984 457.93 513.528 458.332 515.24 450.547Z" fill="#054461"/>
<path fill-rule="evenodd" clip-rule="evenodd" d="M672.173 235.361C677.354 236.53 686.842 226.552 681.043 224.411C676.956 222.901 672.173 232.351 672.173 235.361Z" fill="#054461"/>
<path fill-rule="evenodd" clip-rule="evenodd" d="M606.096 312.866C608.732 314.108 609.34 314.861 611.365 312.823C613.129 311.049 613.051 306.105 611.537 304.259C605.739 297.191 605.875 310.005 606.096 312.866Z" fill="#054461"/>
<path fill-rule="evenodd" clip-rule="evenodd" d="M584.584 298.53C581.835 298.88 573.664 306.63 577.919 309.71C583.132 313.484 586.082 301.663 584.584 298.53Z" fill="#054461"/>
<path fill-rule="evenodd" clip-rule="evenodd" d="M525.091 300.571C527.09 308.268 532.079 303.089 531.796 297.265C531.342 287.936 526.172 296.061 525.091 300.571Z" fill="#054461"/>
<path fill-rule="evenodd" clip-rule="evenodd" d="M494.756 424.188C491.374 425.587 486.785 438.514 491.615 439.207C497.04 439.985 495.233 426.88 494.756 424.188Z" fill="#054461"/>
<path fill-rule="evenodd" clip-rule="evenodd" d="M536.986 416.926C533.117 415.62 531.699 423.782 533.948 425.299C538.896 428.634 537.853 418.852 536.986 416.926Z" fill="#054461"/>
<path fill-rule="evenodd" clip-rule="evenodd" d="M573.671 394.685C573.721 395.768 573.769 396.852 573.82 397.929C573.771 396.844 573.722 395.764 573.671 394.685Z" fill="#054461"/>
<path fill-rule="evenodd" clip-rule="evenodd" d="M444.139 444.999C444.179 446.111 444.219 447.221 444.261 448.327C444.223 447.214 444.181 446.107 444.139 444.999Z" fill="#054461"/>
<path fill-rule="evenodd" clip-rule="evenodd" d="M511.957 397.258C511.978 398.2 512.001 399.143 512.025 400.079C512.004 399.134 511.98 398.196 511.957 397.258Z" fill="#054461"/>
<path fill-rule="evenodd" clip-rule="evenodd" d="M83.9635 381.037C75.9413 380.779 66.9921 377.76 59.1092 378.721C56.9389 378.985 51.9434 379.532 55.4202 382.751C57.0831 384.29 65.0439 383.494 67.4535 384.005C82.1825 387.123 98.9024 389.134 114.005 388.875C121.075 388.753 128.197 388.187 135.264 387.813C142.326 387.44 143.02 384.57 135.074 383.657C126.821 382.71 118.353 383.061 110.06 383.051C101.341 383.04 92.6652 381.619 83.9635 381.037Z" fill="#054461"/>
<path fill-rule="evenodd" clip-rule="evenodd" d="M66.352 361.709C67.1241 363.907 67.8019 368.953 70.7607 369.284C74.9046 369.747 75.5906 362.632 75.4381 360.03C75.2529 356.889 74.1227 351.671 70.2189 352.76C66.9217 353.678 66.5914 359.195 66.352 361.709Z" fill="#054461"/>
<path fill-rule="evenodd" clip-rule="evenodd" d="M91.439 360.099C90.8333 357.746 90.5358 352.438 87.2065 352.258C83.4856 352.057 82.4225 357.587 82.4471 360.236C82.4717 362.752 83.402 367.503 86.3648 368.084C90.3817 368.872 90.7407 362.789 91.439 360.099Z" fill="#054461"/>
<path fill-rule="evenodd" clip-rule="evenodd" d="M133.219 364.322C134.425 367.151 135.222 371.048 138.953 369.119C141.838 367.627 142.241 361.611 141.696 358.856C141.132 356.002 139.938 352.729 136.659 354.012C132.877 355.493 133.259 361.207 133.219 364.322Z" fill="#054461"/>
<path fill-rule="evenodd" clip-rule="evenodd" d="M101.58 361.709C105.136 372.489 111.622 365.196 109.16 357.147C106.584 348.735 101.907 356.905 101.58 361.709Z" fill="#054461"/>
<path fill-rule="evenodd" clip-rule="evenodd" d="M118.907 362.243C119.895 364.141 120.946 368.236 123.608 367.804C126.871 367.275 126.976 360.994 126.618 358.655C126.306 356.608 125.386 353.196 122.654 353.24C118.707 353.304 118.972 359.785 118.907 362.243Z" fill="#054461"/>
<path fill-rule="evenodd" clip-rule="evenodd" d="M47.969 364.312C50.6163 370.252 54.2578 365.135 53.0923 360.917C51.3638 354.661 48.119 360.203 47.969 364.312Z" fill="#054461"/>
<path fill-rule="evenodd" clip-rule="evenodd" d="M112.803 383.059C115.693 383.047 118.586 383.037 121.477 383.026C118.583 382.481 115.69 382.269 112.803 383.059Z" fill="#054461"/>
<path fill-rule="evenodd" clip-rule="evenodd" d="M55.3482 378.696C57.8561 378.713 60.3633 378.728 62.8696 378.744C60.3666 377.994 57.8594 377.977 55.3482 378.696Z" fill="#054461"/>
<path fill-rule="evenodd" clip-rule="evenodd" d="M133.219 364.322C133.237 362.881 133.257 361.44 133.274 360.003C132.532 361.435 132.584 362.875 133.219 364.322Z" fill="#054461"/>
<path fill-rule="evenodd" clip-rule="evenodd" d="M117.487 388.844C116.323 388.855 115.159 388.865 114.005 388.876C115.172 388.865 116.33 388.855 117.487 388.844Z" fill="#054461"/>
<path fill-rule="evenodd" clip-rule="evenodd" d="M137.031 387.813C135.852 387.813 134.673 387.813 133.502 387.813C134.686 387.813 135.858 387.813 137.031 387.813Z" fill="#054461"/>
<path fill-rule="evenodd" clip-rule="evenodd" d="M127.366 383.183C129.005 383.318 130.645 383.452 132.283 383.587C130.644 383.452 129.005 383.318 127.366 383.183Z" fill="#054461"/>
<path fill-rule="evenodd" clip-rule="evenodd" d="M105.204 383.041C106.823 383.044 108.441 383.047 110.06 383.051C108.442 382.369 106.824 382.349 105.204 383.041Z" fill="#054461"/>
<path fill-rule="evenodd" clip-rule="evenodd" d="M118.907 362.243C118.947 360.741 118.987 359.24 119.024 357.74C118.984 359.242 118.946 360.743 118.907 362.243Z" fill="#054461"/>
<path fill-rule="evenodd" clip-rule="evenodd" d="M141.695 358.856C141.704 360.321 141.713 361.785 141.725 363.244C141.716 361.778 141.706 360.317 141.695 358.856Z" fill="#054461"/>
<path fill-rule="evenodd" clip-rule="evenodd" d="M74.7668 380.492C76.1978 380.621 77.628 380.75 79.0574 380.88C77.6264 380.75 76.1962 380.621 74.7668 380.492Z" fill="#054461"/>
<path fill-rule="evenodd" clip-rule="evenodd" d="M47.9692 364.312C48.0159 363.033 48.0618 361.753 48.1077 360.476C48.0609 361.756 48.0159 363.034 47.9692 364.312Z" fill="#054461"/>
<path fill-rule="evenodd" clip-rule="evenodd" d="M108.84 388.887C107.844 388.868 106.848 388.849 105.862 388.832C106.861 388.852 107.851 388.87 108.84 388.887Z" fill="#054461"/>
<path fill-rule="evenodd" clip-rule="evenodd" d="M66.352 361.709C66.4397 360.789 66.5274 359.869 66.6143 358.953C66.5266 359.874 66.4389 360.791 66.352 361.709Z" fill="#054461"/>
<path fill-rule="evenodd" clip-rule="evenodd" d="M101.58 361.709C101.644 360.765 101.709 359.82 101.773 358.878C101.708 359.823 101.644 360.767 101.58 361.709Z" fill="#054461"/>
<path fill-rule="evenodd" clip-rule="evenodd" d="M615.171 84.2499C619.088 83.2221 619.823 77.7177 619.193 74.3368C618.479 72.7074 617.765 71.0789 617.051 69.4495C617.331 68.8471 617.61 68.2447 617.888 67.6423C617.53 64.2869 618.446 62.8288 614.589 64.1877C607.426 66.7137 606.281 83.9909 615.171 84.2499Z" fill="#054461"/>
<path fill-rule="evenodd" clip-rule="evenodd" d="M557.191 73.6074C553.964 73.3533 548.103 77.1111 551.315 80.7469C553.305 82.9992 559.863 81.9337 562.538 82.4041C566.086 83.0278 569.787 83.881 567.867 78.5668C566.36 74.3933 560.977 73.4983 557.191 73.6074Z" fill="#054461"/>
<path fill-rule="evenodd" clip-rule="evenodd" d="M560.586 98.6035C563.864 95.9751 562.401 84.0032 557.413 86.1571C552.281 88.3741 557.851 96.8758 560.586 98.6035Z" fill="#054461"/>
<path fill-rule="evenodd" clip-rule="evenodd" d="M619.193 74.3368C619.193 75.5965 619.193 76.8571 619.196 78.111C619.879 76.8489 619.858 75.5924 619.193 74.3368Z" fill="#054461"/>
<path fill-rule="evenodd" clip-rule="evenodd" d="M615.171 84.2499C614.503 84.231 613.834 84.2114 613.174 84.1942C613.846 84.2155 614.508 84.2327 615.171 84.2499Z" fill="#054461"/>
<path fill-rule="evenodd" clip-rule="evenodd" d="M210.467 429.029C210.774 434.474 216.622 430.448 216.207 426.805C215.454 420.194 211.716 426.727 210.467 429.029Z" fill="#054461"/>
</svg>
