<svg width="120" height="29" viewBox="0 0 120 29" fill="none" xmlns="http://www.w3.org/2000/svg">
<path d="M9.14 4H8.18V10.68H1.5V18.32H8.18V25H15.82V18.32H22.5V10.68H15.82V4H12.96H9.14Z" stroke="#054461" stroke-width="1.5" stroke-miterlimit="10"/>
<path d="M19.64 14.5H7.22999H6.26999H4.35999" stroke="#054461" stroke-width="1.5" stroke-miterlimit="10"/>
<path d="M12 6.86V22.14" stroke="#054461" stroke-width="1.5" stroke-miterlimit="10"/>
<path d="M43.2074 10.3438C43.1278 9.59943 42.7926 9.01989 42.2017 8.60511C41.6165 8.19034 40.8551 7.98295 39.9176 7.98295C39.2585 7.98295 38.6932 8.08239 38.2216 8.28125C37.75 8.48011 37.3892 8.75 37.1392 9.09091C36.8892 9.43182 36.7614 9.82102 36.7557 10.2585C36.7557 10.6222 36.8381 10.9375 37.0028 11.2045C37.1733 11.4716 37.4034 11.6989 37.6932 11.8864C37.983 12.0682 38.304 12.2216 38.6562 12.3466C39.0085 12.4716 39.3636 12.5767 39.7216 12.6619L41.358 13.071C42.017 13.2244 42.6506 13.4318 43.2585 13.6932C43.8722 13.9545 44.4205 14.2841 44.9034 14.6818C45.392 15.0795 45.7784 15.5597 46.0625 16.1222C46.3466 16.6847 46.4886 17.3437 46.4886 18.0994C46.4886 19.1222 46.2273 20.0227 45.7045 20.8011C45.1818 21.5739 44.4261 22.179 43.4375 22.6165C42.4545 23.0483 41.2642 23.2642 39.8665 23.2642C38.5085 23.2642 37.3295 23.054 36.3295 22.6335C35.3352 22.2131 34.5568 21.5994 33.9943 20.7926C33.4375 19.9858 33.1364 19.0028 33.0909 17.8438H36.2017C36.2472 18.4517 36.4347 18.9574 36.7642 19.3608C37.0938 19.7642 37.5227 20.0653 38.0511 20.2642C38.5852 20.4631 39.1818 20.5625 39.8409 20.5625C40.5284 20.5625 41.1307 20.4602 41.6477 20.2557C42.1705 20.0455 42.5795 19.7557 42.875 19.3864C43.1705 19.0114 43.321 18.5739 43.3267 18.0739C43.321 17.6193 43.1875 17.2443 42.9261 16.9489C42.6648 16.6477 42.2983 16.3977 41.8267 16.1989C41.3608 15.9943 40.8153 15.8125 40.1903 15.6534L38.2045 15.142C36.767 14.7727 35.6307 14.2131 34.7955 13.4631C33.9659 12.7074 33.5511 11.7045 33.5511 10.4545C33.5511 9.42614 33.8295 8.52557 34.3864 7.75284C34.9489 6.98011 35.7131 6.38068 36.679 5.95454C37.6449 5.52273 38.7386 5.30682 39.9602 5.30682C41.1989 5.30682 42.2841 5.52273 43.2159 5.95454C44.1534 6.38068 44.8892 6.97443 45.4233 7.73579C45.9574 8.49148 46.233 9.3608 46.25 10.3438H43.2074ZM51.0888 27.9091C50.6683 27.9091 50.2791 27.875 49.9212 27.8068C49.5689 27.7443 49.2876 27.6705 49.0774 27.5852L49.7933 25.1818C50.2422 25.3125 50.6428 25.375 50.995 25.3693C51.3473 25.3636 51.657 25.2528 51.924 25.0369C52.1967 24.8267 52.4268 24.4744 52.6143 23.9801L52.8786 23.2727L48.1314 9.90909H51.4041L54.4212 19.7955H54.5575L57.5831 9.90909H60.8643L55.6229 24.5852C55.3786 25.2784 55.0547 25.8722 54.6513 26.3665C54.2479 26.8665 53.7536 27.2472 53.1683 27.5085C52.5888 27.7756 51.8956 27.9091 51.0888 27.9091ZM73.3459 13.3693L70.5334 13.6761C70.4538 13.392 70.3146 13.125 70.1158 12.875C69.9226 12.625 69.6612 12.4233 69.3317 12.2699C69.0021 12.1165 68.5987 12.0398 68.1214 12.0398C67.4794 12.0398 66.9396 12.179 66.5021 12.4574C66.0703 12.7358 65.8572 13.0966 65.8629 13.5398C65.8572 13.9205 65.9964 14.2301 66.2805 14.4688C66.5703 14.7074 67.0476 14.9034 67.7124 15.0568L69.9453 15.5341C71.1839 15.8011 72.1044 16.2244 72.7067 16.804C73.3146 17.3835 73.6214 18.142 73.6271 19.0795C73.6214 19.9034 73.38 20.6307 72.9027 21.2614C72.4311 21.8864 71.7749 22.375 70.9339 22.7273C70.093 23.0795 69.1271 23.2557 68.0362 23.2557C66.4339 23.2557 65.1442 22.9205 64.1669 22.25C63.1896 21.5739 62.6072 20.6335 62.4197 19.429L65.4283 19.1392C65.5646 19.7301 65.8544 20.1761 66.2976 20.4773C66.7408 20.7784 67.3175 20.929 68.0277 20.929C68.7607 20.929 69.3487 20.7784 69.7919 20.4773C70.2408 20.1761 70.4652 19.804 70.4652 19.3608C70.4652 18.9858 70.3203 18.6761 70.0305 18.4318C69.7464 18.1875 69.3033 18 68.701 17.8693L66.468 17.4006C65.2124 17.1392 64.2834 16.6989 63.6811 16.0795C63.0788 15.4545 62.7805 14.6648 62.7862 13.7102C62.7805 12.9034 62.9993 12.2045 63.4425 11.6136C63.8913 11.017 64.5135 10.5568 65.3089 10.233C66.1101 9.90341 67.0334 9.73864 68.0788 9.73864C69.6129 9.73864 70.8203 10.0653 71.701 10.7188C72.5874 11.3722 73.1357 12.2557 73.3459 13.3693ZM82.7081 9.90909V12.2955H75.1825V9.90909H82.7081ZM77.0405 6.77273H80.1257V19.0625C80.1257 19.4773 80.1882 19.7955 80.3132 20.017C80.4439 20.233 80.6143 20.3807 80.8246 20.4602C81.0348 20.5398 81.2678 20.5795 81.5234 20.5795C81.7166 20.5795 81.8928 20.5653 82.0518 20.5369C82.2166 20.5085 82.3416 20.483 82.4268 20.4602L82.9467 22.8722C82.782 22.929 82.5462 22.9915 82.2393 23.0597C81.9382 23.1278 81.5689 23.1676 81.1314 23.179C80.3587 23.2017 79.6626 23.0852 79.0433 22.8295C78.424 22.5682 77.9325 22.1648 77.5689 21.6193C77.2109 21.0739 77.0348 20.392 77.0405 19.5739V6.77273ZM90.9432 23.2557C89.6307 23.2557 88.4972 22.983 87.5426 22.4375C86.5938 21.8864 85.8636 21.108 85.3523 20.1023C84.8409 19.0909 84.5852 17.9006 84.5852 16.5312C84.5852 15.1847 84.8409 14.0028 85.3523 12.9858C85.8693 11.9631 86.5909 11.1676 87.517 10.5994C88.4432 10.0256 89.5312 9.73864 90.7812 9.73864C91.5881 9.73864 92.3494 9.86932 93.0653 10.1307C93.7869 10.3864 94.4233 10.7841 94.9744 11.3239C95.5313 11.8636 95.9688 12.5511 96.2869 13.3864C96.6051 14.2159 96.7642 15.2045 96.7642 16.3523V17.2983H86.0341V15.2188H93.8068C93.8011 14.6278 93.6733 14.1023 93.4233 13.642C93.1733 13.1761 92.8239 12.8097 92.375 12.5426C91.9318 12.2756 91.4148 12.142 90.8239 12.142C90.1932 12.142 89.6392 12.2955 89.1619 12.6023C88.6847 12.9034 88.3125 13.3011 88.0455 13.7955C87.7841 14.2841 87.6506 14.821 87.6449 15.4062V17.2216C87.6449 17.983 87.7841 18.6364 88.0625 19.1818C88.3409 19.7216 88.7301 20.1364 89.2301 20.4261C89.7301 20.7102 90.3153 20.8523 90.9858 20.8523C91.4347 20.8523 91.8409 20.7898 92.2045 20.6648C92.5682 20.5341 92.8835 20.3438 93.1506 20.0938C93.4176 19.8438 93.6193 19.5341 93.7557 19.1648L96.6364 19.4886C96.4545 20.25 96.108 20.9148 95.5966 21.483C95.0909 22.0455 94.4432 22.483 93.6534 22.7955C92.8636 23.1023 91.9602 23.2557 90.9432 23.2557ZM99.3743 23V9.90909H102.323V12.1335H102.477C102.749 11.3835 103.201 10.7983 103.832 10.3778C104.462 9.9517 105.215 9.73864 106.09 9.73864C106.977 9.73864 107.724 9.95455 108.332 10.3864C108.945 10.8125 109.377 11.3949 109.627 12.1335H109.763C110.053 11.4062 110.542 10.8267 111.229 10.3949C111.923 9.95739 112.744 9.73864 113.692 9.73864C114.897 9.73864 115.88 10.1193 116.641 10.8807C117.403 11.642 117.783 12.7528 117.783 14.2131V23H114.69V14.6903C114.69 13.8778 114.474 13.2841 114.042 12.9091C113.61 12.5284 113.082 12.3381 112.457 12.3381C111.712 12.3381 111.13 12.571 110.71 13.0369C110.295 13.4972 110.087 14.0966 110.087 14.8352V23H107.062V14.5625C107.062 13.8864 106.857 13.3466 106.448 12.9432C106.045 12.5398 105.516 12.3381 104.863 12.3381C104.42 12.3381 104.016 12.4517 103.653 12.679C103.289 12.9006 102.999 13.2159 102.783 13.625C102.567 14.0284 102.46 14.5 102.46 15.0398V23H99.3743Z" fill="#054461"/>
</svg>
